<?xml version="1.0" encoding="utf-8"?>

<!DOCTYPE svg PUBLIC "-//W3C//DTD SVG 1.1//EN" "http://www.w3.org/Graphics/SVG/1.1/DTD/svg11.dtd">
<svg version="1.1" id="Layer_1" xmlns="http://www.w3.org/2000/svg" xmlns:xlink="http://www.w3.org/1999/xlink" x="0px" y="0px"
	 viewBox="0 0 1014 1650.7148" enable-background="new 0 0 1014 1650.7148" xml:space="preserve">
<g>
	<path fill="none" d="M387.5613,727.6403c8.5334,4.4785,17.2751,8.4237,26.244,11.8182c6.2327,2.3589,12.5773,4.4477,19.0289,6.2867
		c3.5966,1.0251,7.225,1.9763,10.8912,2.8406c6.5062,1.5338,13.1263,2.808,19.8578,3.8374
		c5.9773,0.9142,12.0432,1.6341,18.2034,2.1526c8.1218,0.6837,16.3984,1.0377,24.8474,1.0377c2.8276,0,5.6292-0.0512,8.4187-0.1266
		c7.2227-0.1952,14.3164-0.648,21.2888-1.3506c3.4053-0.3431,6.7876-0.7335,10.1343-1.1982
		c8.417-1.1686,16.6512-2.7207,24.7079-4.662c7.4073-1.7848,14.6598-3.9096,21.7733-6.3519
		c10.0227-3.4411,19.7617-7.5307,29.2253-12.2871c8.1052-4.0736,16.0085-8.6371,23.7231-13.6835
		c10.0024-6.543,19.6892-13.8932,29.0696-22.0858c0.0813-0.071,0.1621-0.1436,0.2434-0.2147
		c0.3856-0.3375,0.7661-0.6888,1.1506-1.0292c4.4629-3.9496,8.8625-8.0731,13.1907-12.4014
		c2.6514-2.6512,5.2148-5.332,7.7253-8.0311c5.8301-6.2678,11.2791-12.6671,16.3529-19.2018
		c1.2371-1.5932,2.452-3.1945,3.6444-4.804c0.1519-0.205,0.3033-0.4102,0.4546-0.6155c1.3181-1.7903,2.6094-3.5908,3.8726-5.4016
		c7.7209-11.0686,14.4287-22.5142,20.1028-34.3756c3.3787-7.063,6.385-14.2761,9.0442-21.6355
		c2.9675-8.2124,5.5016-16.6077,7.5795-25.2042c1.012-4.1868,1.9156-8.4214,2.7179-12.702
		c1.3479-7.1934,2.3853-14.5276,3.1436-21.9932c0.2993-2.9469,0.5635-5.9104,0.7714-8.9006
		c0.474-6.8196,0.7179-13.749,0.7179-20.7987c0-0.932-0.0126-1.8615-0.0225-2.7914c-0.1134-10.7349-0.8812-21.3318-2.314-31.8223
		c-0.4966-3.6357-1.0688-7.2595-1.7253-10.8713c-1.3354-7.3474-3.0066-14.6477-5.0085-21.9128
		c-1.5797-5.7334-3.3699-11.4447-5.3682-17.1396c-4.2201-12.0271-9.377-23.9819-15.4849-35.9164
		c-1.7389-3.3976-3.5459-6.7936-5.4392-10.1891c-0.292-0.5237-0.5911-1.0381-0.8856-1.5583
		c-5.647-9.9709-11.7806-19.3123-18.4287-28.0461c-2.6327-3.4586-5.347-6.8213-8.1425-10.0916
		c-11.887-13.9064-25.2607-26.1244-40.2443-36.7764c-1.9497-1.386-3.9259-2.7465-5.9304-4.0797
		c-2.6016-1.7305-5.2506-3.4159-7.9457-5.0585c-4.1742-2.5442-8.4541-4.9904-12.8561-7.3275l-0.8053-0.432
		c-4.4539-2.4259-8.9036-4.7129-13.3523-6.8774c-5.6492-2.749-11.2966-5.2878-16.9475-7.6182
		c-10.1558-4.188-20.3237-7.7032-30.5364-10.553c-5.7834-1.6139-11.5815-3.0142-17.3998-4.2032
		c-4.7963-0.9802-9.6063-1.8182-14.4337-2.5118c-1.696-0.2437-3.3947-0.4673-5.0952-0.6758
		c-10.1381-1.2428-20.356-1.8684-30.6868-1.8684c-2.949,0-5.8904,0.0559-8.8259,0.1589c-2.6884,0.0942-5.3716,0.2314-8.0498,0.4125
		c-0.9529,0.0643-1.9052,0.1346-2.8569,0.2101c-0.9358,0.0742-1.8708,0.1577-2.8057,0.2424
		c-15.4399,1.4011-30.7346,4.2487-45.9921,8.587c-4.6854,1.3322-9.3672,2.8119-14.049,4.4248
		c-10.6855,3.6813-21.3705,8.0956-32.0918,13.2531c-4.6807,2.2517-9.3679,4.6364-14.0657,7.1721
		c-2.558,1.3704-5.0764,2.7756-7.5565,4.2155c-5.5701,3.2335-10.9386,6.6495-16.1241,10.2406
		c-9.562,6.6218-18.4841,13.8569-26.7932,21.7458c-5.3093,5.0408-10.3685,10.3492-15.1902,15.9297
		c-3.7946,4.3917-7.4395,8.9556-10.9421,13.691c-3.866,5.2264-7.5615,10.6588-11.0835,16.3146
		c-2.2434,3.6029-4.4194,7.2926-6.5275,11.0735c-1.5898,2.8517-3.1208,5.7037-4.6017,8.5566
		c-1.7869,3.4421-3.4915,6.886-5.1201,10.3322c-3.8285,8.1002-7.2227,16.2153-10.1846,24.3616
		c-5.4314,14.9379-9.4165,29.981-11.9772,45.2316c-0.1239,0.738-0.2391,1.4773-0.3564,2.2163
		c-0.6144,3.8723-1.1395,7.7582-1.5718,11.6595c-1.0344,9.3354-1.555,18.7576-1.555,28.2915c0,4.5516,0.0984,9.0542,0.2938,13.5094
		c0.5948,13.5619,2.1046,26.6775,4.5233,39.3779c0.126,0.6616,0.2639,1.3176,0.3949,1.9771
		c2.9235,14.7166,7.0869,28.8694,12.5061,42.4946c1.5292,3.8447,3.1583,7.6478,4.8878,11.4094
		c3.7048,8.0585,7.8594,15.933,12.4885,23.6225c4.1702,6.927,8.7229,13.7055,13.6484,20.3459
		c0.8446,1.1388,1.7058,2.2715,2.5728,3.4021c5.5139,7.1904,11.4773,14.216,17.8969,21.0831
		c2.0201,2.1608,4.0682,4.312,6.1783,6.4418c3.412,3.3803,6.8652,6.6361,10.3549,9.7854c3.8156,3.4434,7.6819,6.7388,11.5929,9.907
		c3.7384,3.0283,7.5203,5.934,11.3481,8.7119c5.3225,3.8625,10.7317,7.487,16.2327,10.8674
		C377.9409,722.3875,382.7183,725.0984,387.5613,727.6403z"/>
	<path fill="#843895" d="M975.772,460.6095c-0.0168-0.2252-0.0317-0.4508-0.049-0.6759L975,460.3574L975.772,460.6095z"/>
	<path fill="#3C4192" d="M975.723,459.9336c-0.0643-0.8423-0.1244-1.6853-0.1934-2.5271L975,460.3574L975.723,459.9336z"/>
	<path fill="#FCD23D" d="M976.2643,467.9431c-0.1449-2.4474-0.3092-4.8918-0.4923-7.3336L975,460.3574L976.2643,467.9431z"/>
	<path fill="#87E7E3" d="M968.7488,407.7664c-2.1538-11.2188-4.7247-22.3625-7.707-33.4252L943,381.3574L968.7488,407.7664z"/>
	<path fill="#B261BD" d="M972.5881,563.6923c2.0015-14.7112,3.3395-29.6683,4.0082-44.8671L926,549.3574L972.5881,563.6923z"/>
	<path fill="#FCD23D" d="M926,549.3574l50.5963-30.5322c0.0909-2.0675,0.1674-4.1401,0.2336-6.2166L943,504.3574L926,549.3574z"/>
	<path fill="#D01891" d="M943,504.3574l33.83,8.2512c0.1776-5.5632,0.2694-11.1572,0.2694-16.7839
		c0-9.3325-0.2874-18.6263-0.8351-27.8816L975,460.3574L943,504.3574z"/>
	<path fill="#0BA251" d="M960.5876,622.8716c1.3547-4.9688,2.6311-9.9677,3.8196-15.0001L944,608.3574L960.5876,622.8716z"/>
	<path fill="#0EB3A4" d="M964.4072,607.8715c2.6178-11.0851,4.8269-22.3259,6.6361-33.716L944,608.3574L964.4072,607.8715z"/>
	<polygon fill="#843895" points="950.678,1235.481 950.678,1228.6563 946,1230.3574 	"/>
	<polygon fill="#46BAEB" points="941,1279.3574 950.678,1278.7396 950.678,1235.481 946,1230.3574 	"/>
	<polygon fill="#FCD23D" points="950.678,1291.5973 950.678,1278.7396 941,1279.3574 	"/>
	<path fill="#9E58A2" d="M943,641.3574l11.9272,0.5818c2.024-6.3027,3.9127-12.658,5.6604-19.0676L944,608.3574L943,641.3574z"/>
	<path fill="#85DC34" d="M927.5421,285.9539c-0.746-1.5107-1.5031-3.0188-2.2657-4.5254L924,288.3574L927.5421,285.9539z"/>
	<path fill="#0461C8" d="M952.2246,650.1089c0.9293-2.7121,1.8252-5.4373,2.7026-8.1697L943,641.3574L952.2246,650.1089z"/>
	<path fill="#87E7E3" d="M928.874,288.677c-0.4418-0.9082-0.8842-1.8164-1.3319-2.7231L924,288.3574L928.874,288.677z"/>
	<path fill="#FDDA65" d="M950.4607,340.2451c-1.4172-4.0222-2.8997-8.0304-4.4292-12.028L939,329.3574L950.4607,340.2451z"/>
	<path fill="#D01891" d="M934,410.3574l36.7239,8.4159c-0.6143-3.6768-1.2722-7.3458-1.9751-11.007L943,381.3574L934,410.3574z"/>
	<polygon fill="#9E58A2" points="950.678,1166.1783 950.678,1139.6218 927,1144.3574 	"/>
	<polygon fill="#0BA251" points="923,1186.3574 950.678,1188.8735 950.678,1166.1783 927,1144.3574 	"/>
	<polygon fill="#9E58A2" points="950.678,1115.8384 950.678,1088.6218 932,1092.3574 	"/>
	<path fill="#3C4192" d="M939,329.3574l7.0315-1.1403c-4.5275-11.8335-9.5461-23.5571-15.0525-35.1624L924,288.3574L939,329.3574z"
		/>
	<path fill="#3C4192" d="M975,460.3574l0.5297-2.9509c-1.0615-12.9644-2.6692-25.8447-4.8058-38.6332L934,410.3574L975,460.3574z"/>
	<path fill="#3C4192" d="M930.979,293.0548c-0.6934-1.4613-1.3962-2.9203-2.105-4.3778L924,288.3574L930.979,293.0548z"/>
	<polygon fill="#843895" points="943,504.3574 975,460.3574 933,467.3574 	"/>
	<polygon fill="#0BA251" points="975,460.3574 934,410.3574 933,467.3574 	"/>
	<path fill="#EC752E" d="M943,381.3574l18.0417-7.0162c-3.0881-11.4548-6.6091-22.8241-10.5811-34.0961L939,329.3574L943,381.3574z"
		/>
	<path fill="#FDCD19" d="M934.324,694.3774c6.7639-14.4385,12.7356-29.1956,17.9006-44.2685L943,641.3574L934.324,694.3774z"/>
	<polygon fill="#07ACEA" points="936.1415,1303.1641 950.678,1303.1641 950.678,1291.5973 941,1279.3574 	"/>
	<polygon fill="#E4282E" points="950.678,1208.4999 950.678,1188.8735 923,1186.3574 	"/>
	<path fill="#FDDA65" d="M944,608.3574l27.0433-34.2019c0.5519-3.474,1.0685-6.9612,1.5448-10.4633L926,549.3574L944,608.3574z"/>
	<polygon fill="#843895" points="946,1230.3574 950.678,1228.6563 950.678,1208.4999 923,1186.3574 	"/>
	<polygon fill="#87E7E3" points="927,1144.3574 950.678,1139.6218 950.678,1115.8384 932,1092.3574 	"/>
	<polygon fill="#46BAEB" points="950.678,1088.6218 950.678,1088.0818 931.4817,1088.0818 932,1092.3574 	"/>
	<polygon fill="#3C4192" points="933,467.3574 934,410.3574 900,460.3574 	"/>
	<path fill="#0461C8" d="M898.3154,234.4341c-1.054-1.6191-2.1086-3.2377-3.1807-4.84L892,231.3574L898.3154,234.4341z"/>
	<polygon fill="#07ACEA" points="898,1285.3574 941,1279.3574 894,1232.3574 	"/>
	<polygon fill="#DE4F9B" points="898,1285.3574 911.6655,1303.1641 936.1415,1303.1641 941,1279.3574 	"/>
	<path fill="#DE4F9B" d="M897,648.3574l36.6259,47.5146c0.2352-0.4972,0.4648-0.9966,0.6981-1.4946l8.676-53.02L897,648.3574z"/>
	<polygon fill="#46BAEB" points="896,508.3574 943,504.3574 933,467.3574 	"/>
	<polygon fill="#85DC34" points="926,549.3574 943,504.3574 896,508.3574 	"/>
	<polygon fill="#FDCD19" points="943,381.3574 939,329.3574 898,363.3574 	"/>
	<polygon fill="#0EB3A4" points="943,641.3574 944,608.3574 896,610.3574 	"/>
	<polygon fill="#85DC34" points="944,608.3574 926,549.3574 896,610.3574 	"/>
	<polygon fill="#B261BD" points="941,1279.3574 946,1230.3574 894,1232.3574 	"/>
	<polygon fill="#0BA251" points="946,1230.3574 923,1186.3574 894,1232.3574 	"/>
	<polygon fill="#46BAEB" points="894.043,1303.1641 911.6655,1303.1641 898,1285.3574 	"/>
	<polygon fill="#46BAEB" points="927,1144.3574 932,1092.3574 888,1128.3574 	"/>
	<path fill="#3C4192" d="M910.9598,737.8423c8.142-13.348,15.5375-27.0048,22.1831-40.964L883,727.3574L910.9598,737.8423z"/>
	<polygon fill="#FDCD19" points="897,648.3574 943,641.3574 896,610.3574 	"/>
	<path fill="#FCD23D" d="M888,692.3574l45.4172,3.9493c0.0688-0.1451,0.1399-0.2895,0.2086-0.4348L897,648.3574L888,692.3574z"/>
	<polygon fill="#3C4192" points="900,460.3574 934,410.3574 889,412.3574 	"/>
	<polygon fill="#E4282E" points="934,410.3574 943,381.3574 898,363.3574 	"/>
	<polygon fill="#843895" points="939,329.3574 924,288.3574 878,335.3574 	"/>
	<path fill="#843895" d="M895.1348,229.5941c-0.8735-1.3058-1.7645-2.5953-2.6501-3.8898L892,231.3574L895.1348,229.5941z"/>
	<polygon fill="#0461C8" points="896,610.3574 926,549.3574 891,546.3574 	"/>
	<polygon fill="#85DC34" points="889,412.3574 934,410.3574 898,363.3574 	"/>
	<polygon fill="#46BAEB" points="932,1092.3574 893,1089.3574 888,1128.3574 	"/>
	<polygon fill="#843895" points="933,467.3574 900,460.3574 896,508.3574 	"/>
	<path fill="#0461C8" d="M883,727.3574l50.1429-30.4791c0.0908-0.1908,0.1837-0.3807,0.2743-0.5716L888,692.3574L883,727.3574z"/>
	<polygon fill="#FDDA65" points="898,363.3574 939,329.3574 878,335.3574 	"/>
	<path fill="#D01891" d="M924,288.3574l1.2764-6.929c-2.9958-5.9191-6.1085-11.8088-9.3611-17.6624L895,282.3574L924,288.3574z"/>
	<polygon fill="#DE4F9B" points="932,1092.3574 931.4817,1088.0818 894.4882,1088.0818 893,1089.3574 	"/>
	<polygon fill="#85DC34" points="924,288.3574 895,282.3574 878,335.3574 	"/>
	<polygon fill="#EC752E" points="891,546.3574 926,549.3574 896,508.3574 	"/>
	<polygon fill="#E4282E" points="923,1186.3574 927,1144.3574 884,1178.3574 	"/>
	<path fill="#FDCD19" d="M884.6125,776.5402c9.5125-12.5919,18.2935-25.4943,26.3473-38.6978L883,727.3574L884.6125,776.5402z"/>
	<path fill="#FDDA65" d="M895,282.3574l20.9153-18.5913c-0.0498-0.0894-0.0972-0.1793-0.147-0.2687
		c-5.5055-9.9736-11.3307-19.6567-17.4529-29.0634L892,231.3574L895,282.3574z"/>
	<polygon fill="#0461C8" points="894.4882,1088.0818 892.7449,1088.0818 893,1089.3574 	"/>
	<polygon fill="#843895" points="894,1232.3574 923,1186.3574 884,1178.3574 	"/>
	<polygon fill="#46BAEB" points="884,1178.3574 927,1144.3574 888,1128.3574 	"/>
	<path fill="#D01891" d="M851,728.3574l29.9873,52.9189c1.2195-1.574,2.4288-3.1523,3.6252-4.7361L883,727.3574L851,728.3574z"/>
	<polygon fill="#B261BD" points="888,1128.3574 853,1137.3574 884,1178.3574 	"/>
	<polygon fill="#46BAEB" points="838,470.3574 889,412.3574 840,409.3574 	"/>
	<polygon fill="#85DC34" points="854,594.3574 891,546.3574 841,558.3574 	"/>
	<polygon fill="#87E7E3" points="894,1232.3574 884,1178.3574 855,1196.3574 	"/>
	<polygon fill="#0BA251" points="845,1235.3574 855,1275.3574 894,1232.3574 	"/>
	<polygon fill="#FDCD19" points="878,335.3574 895,282.3574 834,288.3574 	"/>
	<polygon fill="#0BA251" points="895,282.3574 892,231.3574 841,234.3574 	"/>
	<path fill="#B261BD" d="M872.014,198.0923c-7.9889-9.9402-16.3816-19.4907-25.1639-28.6548L842,200.3574L872.014,198.0923z"/>
	<polygon fill="#EC752E" points="896,610.3574 891,546.3574 854,594.3574 	"/>
	<polygon fill="#E4282E" points="849,515.3574 896,508.3574 838,470.3574 	"/>
	<polygon fill="#EC752E" points="891,546.3574 896,508.3574 849,515.3574 	"/>
	<polygon fill="#843895" points="855,640.3574 897,648.3574 896,610.3574 	"/>
	<polygon fill="#9E58A2" points="888,692.3574 897,648.3574 855,640.3574 	"/>
	<polygon fill="#B261BD" points="855,1275.3574 898,1285.3574 894,1232.3574 	"/>
	<polygon fill="#07ACEA" points="889,412.3574 898,363.3574 835,376.3574 	"/>
	<polygon fill="#FDDA65" points="896,508.3574 900,460.3574 838,470.3574 	"/>
	<polygon fill="#843895" points="900,460.3574 889,412.3574 838,470.3574 	"/>
	<polygon fill="#DE4F9B" points="840,409.3574 889,412.3574 835,376.3574 	"/>
	<polygon fill="#843895" points="834,288.3574 895,282.3574 841,234.3574 	"/>
	<path fill="#9E58A2" d="M892,231.3574l0.4846-5.6531c-6.5042-9.5066-13.3225-18.7181-20.4706-27.6121L842,200.3574L892,231.3574z"
		/>
	<polygon fill="#D01891" points="855,1275.3574 882.8066,1303.1641 894.043,1303.1641 898,1285.3574 	"/>
	<polygon fill="#87E7E3" points="898,363.3574 878,335.3574 835,376.3574 	"/>
	<polygon fill="#85DC34" points="893,1089.3574 833,1097.3574 888,1128.3574 	"/>
	<path fill="#0EB3A4" d="M833,783.3574l43.0804,4.1423c1.6547-2.0664,3.2926-4.1398,4.9069-6.2234L851,728.3574L833,783.3574z"/>
	<polygon fill="#843895" points="888,1128.3574 833,1097.3574 853,1137.3574 	"/>
	<polygon fill="#3C4192" points="845,1235.3574 894,1232.3574 855,1196.3574 	"/>
	<polygon fill="#3C4192" points="855,640.3574 896,610.3574 854,594.3574 	"/>
	<polygon fill="#FDDA65" points="849.5743,1303.1641 882.8066,1303.1641 855,1275.3574 	"/>
	<polygon fill="#FDDA65" points="892,231.3574 842,200.3574 841,234.3574 	"/>
	<polygon fill="#87E7E3" points="893,1089.3574 892.7449,1088.0818 844.4326,1088.0818 833,1097.3574 	"/>
	<polygon fill="#3C4192" points="844.4326,1088.0818 835.0006,1088.0818 833,1097.3574 	"/>
	<polygon fill="#FDCD19" points="834,695.3574 888,692.3574 855,640.3574 	"/>
	<polygon fill="#46BAEB" points="878,335.3574 834,288.3574 832,324.3574 	"/>
	<polygon fill="#0461C8" points="883,727.3574 888,692.3574 851,728.3574 	"/>
	<polygon fill="#87E7E3" points="841,558.3574 891,546.3574 849,515.3574 	"/>
	<polygon fill="#0BA251" points="851,728.3574 888,692.3574 834,695.3574 	"/>
	<polygon fill="#46BAEB" points="884,1178.3574 853,1137.3574 855,1196.3574 	"/>
	<path fill="#FCD23D" d="M862.9015,803.2917c4.5277-5.2059,8.9183-10.4711,13.179-15.792L833,783.3574L862.9015,803.2917z"/>
	<path fill="#3C4192" d="M837.869,830.1c3.3646-3.363,6.7068-6.7706,10.0092-10.2575c5.1624-5.4495,10.1676-10.9677,15.0233-16.5507
		L833,783.3574L837.869,830.1z"/>
	<polygon fill="#9E58A2" points="835,376.3574 878,335.3574 832,324.3574 	"/>
	<polygon fill="#843895" points="838,470.3574 840,409.3574 801,428.3574 	"/>
	<polygon fill="#85DC34" points="835.0006,1088.0818 827.9407,1088.0818 833,1097.3574 	"/>
	<polygon fill="#FCD23D" points="796.1998,1303.1641 831.2937,1303.1641 797,1274.3574 	"/>
	<polygon fill="#0EB3A4" points="849,515.3574 838,470.3574 803,517.3574 	"/>
	<polygon fill="#FCD23D" points="841,558.3574 849,515.3574 803,543.3574 	"/>
	<path fill="#FDDA65" d="M842,200.3574l4.8501-30.9199c-5.406-5.641-10.9609-11.1342-16.6641-16.4775L806,157.3574L842,200.3574z"/>
	<polygon fill="#FCD23D" points="833,783.3574 851,728.3574 799,736.3574 	"/>
	<polygon fill="#FDCD19" points="853,1137.3574 795,1140.3574 804,1182.3574 	"/>
	<polygon fill="#0461C8" points="854,594.3574 841,558.3574 798,588.3574 	"/>
	<polygon fill="#46BAEB" points="797,1274.3574 831.2937,1303.1641 849.5743,1303.1641 855,1275.3574 	"/>
	<polygon fill="#07ACEA" points="797,1274.3574 855,1275.3574 845,1235.3574 	"/>
	<polygon fill="#85DC34" points="855,1196.3574 853,1137.3574 804,1182.3574 	"/>
	<polygon fill="#85DC34" points="804,1182.3574 845,1235.3574 855,1196.3574 	"/>
	<polygon fill="#FCD23D" points="834,695.3574 855,640.3574 794,644.3574 	"/>
	<polygon fill="#85DC34" points="798,588.3574 855,640.3574 854,594.3574 	"/>
	<polygon fill="#46BAEB" points="794,644.3574 855,640.3574 798,588.3574 	"/>
	<polygon fill="#0BA251" points="832,324.3574 805,336.3574 835,376.3574 	"/>
	<path fill="#E4282E" d="M811,825.3574l25.8665,5.7481c0.3352-0.3332,0.668-0.6711,1.0026-1.0056L833,783.3574L811,825.3574z"/>
	<path fill="#0EB3A4" d="M830.186,152.96c-4.2351-3.968-8.5491-7.8562-12.9467-11.6587L806,157.3574L830.186,152.96z"/>
	<polygon fill="#85DC34" points="853,1137.3574 833,1097.3574 795,1140.3574 	"/>
	<polygon fill="#FDCD19" points="841,234.3574 801,235.3574 834,288.3574 	"/>
	<polygon fill="#FDCD19" points="797,1237.3574 845,1235.3574 804,1182.3574 	"/>
	<polygon fill="#0461C8" points="803,543.3574 849,515.3574 803,517.3574 	"/>
	<polygon fill="#87E7E3" points="804,779.3574 833,783.3574 799,736.3574 	"/>
	<polygon fill="#46BAEB" points="835,376.3574 805,336.3574 810,372.3574 	"/>
	<polygon fill="#3C4192" points="797,1237.3574 797,1274.3574 845,1235.3574 	"/>
	<polygon fill="#0BA251" points="799,736.3574 851,728.3574 834,695.3574 	"/>
	<polygon fill="#FDCD19" points="834,288.3574 801,235.3574 791,274.3574 	"/>
	<path fill="#DE4F9B" d="M817.2394,141.3013c-5.2589-4.5471-10.639-8.9701-16.1285-13.2791L806,157.3574L817.2394,141.3013z"/>
	<polygon fill="#FDCD19" points="841,234.3574 842,200.3574 801,235.3574 	"/>
	<polygon fill="#DE4F9B" points="801,235.3574 842,200.3574 796,204.3574 	"/>
	<polygon fill="#D01891" points="842,200.3574 806,157.3574 796,204.3574 	"/>
	<polygon fill="#9E58A2" points="840,409.3574 835,376.3574 810,372.3574 	"/>
	<polygon fill="#85DC34" points="833,1097.3574 791,1100.3574 795,1140.3574 	"/>
	<path fill="#FCD23D" d="M807.8367,857.7814c9.9172-8.4049,19.5951-17.2974,29.0298-26.6758L811,825.3574L807.8367,857.7814z"/>
	<polygon fill="#E4282E" points="803,517.3574 838,470.3574 789,468.3574 	"/>
	<polygon fill="#9E58A2" points="789,468.3574 838,470.3574 801,428.3574 	"/>
	<polygon fill="#85DC34" points="798,588.3574 841,558.3574 803,543.3574 	"/>
	<polygon fill="#87E7E3" points="787,700.3574 834,695.3574 794,644.3574 	"/>
	<polygon fill="#9E58A2" points="801,428.3574 840,409.3574 810,372.3574 	"/>
	<polygon fill="#9E58A2" points="811,825.3574 833,783.3574 804,779.3574 	"/>
	<polygon fill="#FCD23D" points="799,736.3574 834,695.3574 787,700.3574 	"/>
	<polygon fill="#0EB3A4" points="833,1097.3574 827.9407,1088.0818 795.7013,1088.0818 791,1100.3574 	"/>
	<polygon fill="#0BA251" points="832,324.3574 834,288.3574 805,336.3574 	"/>
	<polygon fill="#0BA251" points="805,336.3574 834,288.3574 791,274.3574 	"/>
	<polygon fill="#FCD23D" points="787,700.3574 794,644.3574 764,678.3574 	"/>
	<polygon fill="#07ACEA" points="794,644.3574 798,588.3574 756,610.3574 	"/>
	<polygon fill="#85DC34" points="764,1223.3574 797,1237.3574 804,1182.3574 	"/>
	<polygon fill="#85DC34" points="760,786.3574 764,817.3574 804,779.3574 	"/>
	<polygon fill="#85DC34" points="805,336.3574 791,274.3574 755,292.3574 	"/>
	<polygon fill="#9E58A2" points="746,325.3574 805,336.3574 755,292.3574 	"/>
	<path fill="#9E58A2" d="M806,157.3574l-4.8892-29.3352c-4.5244-3.5511-9.1198-7.0283-13.7997-10.4165L763,153.3574L806,157.3574z"
		/>
	<polygon fill="#0EB3A4" points="806,157.3574 763,153.3574 796,204.3574 	"/>
	<polygon fill="#FCD23D" points="795.7013,1088.0818 782.0723,1088.0818 791,1100.3574 	"/>
	<path fill="#0461C8" d="M770.0002,886.6909c8.387-5.7474,16.6246-11.8061,24.7102-18.1774L750,876.3574L770.0002,886.6909z"/>
	<polygon fill="#3C4192" points="801,428.3574 810,372.3574 761,412.3574 	"/>
	<polygon fill="#D01891" points="810,372.3574 805,336.3574 747,364.3574 	"/>
	<polygon fill="#0BA251" points="810,372.3574 747,364.3574 761,412.3574 	"/>
	<path fill="#85DC34" d="M764,817.3574l39.0215,44.4663c1.613-1.3311,3.2146-2.6859,4.8152-4.0424L811,825.3574L764,817.3574z"/>
	<polygon fill="#87E7E3" points="764,817.3574 811,825.3574 804,779.3574 	"/>
	<polygon fill="#07ACEA" points="804,779.3574 799,736.3574 760,786.3574 	"/>
	<path fill="#D01891" d="M750,876.3574l44.7104-7.8439c2.7869-2.1959,5.5602-4.4199,8.311-6.6898L764,817.3574L750,876.3574z"/>
	<path fill="#FDCD19" d="M746.9866,901.4695c7.7937-4.6683,15.4614-9.6032,23.0137-14.7787L750,876.3574L746.9866,901.4695z"/>
	<polygon fill="#46BAEB" points="764,678.3574 794,644.3574 765,653.3574 	"/>
	<path fill="#EC752E" d="M761.054,548.2512c-0.8022,4.2806-1.7059,8.5153-2.7179,12.702L798,588.3574l5-45L761.054,548.2512z"/>
	<polygon fill="#3C4192" points="804,1182.3574 795,1140.3574 757,1180.3574 	"/>
	<polygon fill="#D01891" points="757,1180.3574 764,1223.3574 804,1182.3574 	"/>
	<polygon fill="#FDDA65" points="760,786.3574 799,736.3574 746,746.3574 	"/>
	<path fill="#3C4192" d="M765.6868,496.5587c0,7.0497-0.2439,13.9791-0.7179,20.7987H803l-14-49l-23.3357,25.4099
		C765.6742,494.6973,765.6868,495.6267,765.6868,496.5587z"/>
	<path fill="#87E7E3" d="M764.1975,526.2581L803,543.3574v-26h-38.0311C764.761,520.3477,764.4968,523.3112,764.1975,526.2581z"/>
	<polygon fill="#0461C8" points="747,364.3574 805,336.3574 746,325.3574 	"/>
	<polygon fill="#843895" points="795,1140.3574 791,1100.3574 759,1130.3574 	"/>
	<path fill="#46BAEB" d="M763.3503,461.9451L789,468.3574l12-40l-39.375,22.7163
		C762.2815,454.6855,762.8538,458.3093,763.3503,461.9451z"/>
	<polygon fill="#0461C8" points="791,274.3574 801,235.3574 743,245.3574 	"/>
	<path fill="#FCD23D" d="M761.054,548.2512L803,543.3574l-38.8025-17.0994C763.4392,533.7236,762.4019,541.0579,761.054,548.2512z"
		/>
	<polygon fill="#07ACEA" points="796,204.3574 763,153.3574 745,200.3574 	"/>
	<polygon fill="#0BA251" points="750,1269.3574 797,1274.3574 797,1237.3574 	"/>
	<path fill="#85DC34" d="M763,153.3574l24.3112-35.7517c-8.7092-6.3054-17.6874-12.3271-26.9302-18.0627L749,98.3574L763,153.3574z"
		/>
	<path fill="#FCD23D" d="M756.6165,429.1609c2.002,7.2651,3.6731,14.5654,5.0085,21.9128L801,428.3574l-40-16L756.6165,429.1609z"/>
	<polygon fill="#9E58A2" points="796,204.3574 745,200.3574 743,245.3574 	"/>
	<polygon fill="#DE4F9B" points="750,1269.3574 787.9294,1303.1641 796.1998,1303.1641 797,1274.3574 	"/>
	<polygon fill="#85DC34" points="801,235.3574 796,204.3574 743,245.3574 	"/>
	<polygon fill="#87E7E3" points="791,1100.3574 782.0723,1088.0818 746.6552,1088.0818 745,1104.3574 	"/>
	<polygon fill="#87E7E3" points="795,1140.3574 759,1130.3574 757,1180.3574 	"/>
	<polygon fill="#0461C8" points="764,1223.3574 750,1269.3574 797,1237.3574 	"/>
	<path fill="#9E58A2" d="M760.381,99.543c-3.0701-1.905-6.1783-3.7688-9.3068-5.6106L749,98.3574L760.381,99.543z"/>
	<path fill="#0EB3A4" d="M750.7566,586.1575l5.2434,24.2l42-22l-39.6639-27.4042
		C756.2582,569.5498,753.7241,577.9451,750.7566,586.1575z"/>
	<polygon fill="#46BAEB" points="746,746.3574 799,736.3574 787,700.3574 	"/>
	<polygon fill="#E4282E" points="765,653.3574 794,644.3574 756,610.3574 	"/>
	<polygon fill="#3C4192" points="757.0885,1303.1641 787.9294,1303.1641 750,1269.3574 	"/>
	<path fill="#B261BD" d="M765.6643,493.7673L789,468.3574l-25.6497-6.4124C764.7831,472.4355,765.5509,483.0325,765.6643,493.7673z"
		/>
	<polygon fill="#85DC34" points="791,1100.3574 745,1104.3574 759,1130.3574 	"/>
	<polygon fill="#87E7E3" points="791,274.3574 743,245.3574 755,292.3574 	"/>
	<polygon fill="#0461C8" points="746,746.3574 787,700.3574 764,678.3574 	"/>
	<polygon fill="#0EB3A4" points="709,875.3574 750,876.3574 700,820.3574 	"/>
	<polygon fill="#0BA251" points="745,1104.3574 746.6552,1088.0818 719.2051,1088.0818 719,1088.3574 	"/>
	<polygon fill="#FCD23D" points="755,292.3574 743,245.3574 716,278.3574 	"/>
	<path fill="#0EB3A4" d="M756,610.3574l-5.2434-24.2c-2.6592,7.3594-5.6655,14.5725-9.0442,21.6355L756,610.3574z"/>
	<polygon fill="#85DC34" points="757,1180.3574 759,1130.3574 711,1174.3574 	"/>
	<polygon fill="#843895" points="759,1130.3574 704,1140.3574 711,1174.3574 	"/>
	<polygon fill="#D01891" points="717,777.3574 760,786.3574 746,746.3574 	"/>
	<path fill="#0BA251" d="M751.2483,412.0212c1.9983,5.6949,3.7885,11.4063,5.3682,17.1396L761,412.3574L751.2483,412.0212z"/>
	<path fill="#87E7E3" d="M751.2483,412.0212L761,412.3574l-14-48l-11.2366,11.7474
		C741.8713,388.0393,747.0282,399.9941,751.2483,412.0212z"/>
	<polygon fill="#B261BD" points="714,1282.3574 734.8066,1303.1641 757.0885,1303.1641 750,1269.3574 	"/>
	<polygon fill="#FDCD19" points="706.2938,1303.1641 734.8066,1303.1641 714,1282.3574 	"/>
	<polygon fill="#FCD23D" points="745,200.3574 763,153.3574 716,153.3574 	"/>
	<polygon fill="#46BAEB" points="749,98.3574 715,108.3574 763,153.3574 	"/>
	<polygon fill="#B261BD" points="763,153.3574 715,108.3574 716,153.3574 	"/>
	<polygon fill="#9E58A2" points="720,1224.3574 764,1223.3574 757,1180.3574 	"/>
	<polygon fill="#87E7E3" points="720,1224.3574 750,1269.3574 764,1223.3574 	"/>
	<polygon fill="#85DC34" points="750,876.3574 764,817.3574 700,820.3574 	"/>
	<polygon fill="#9E58A2" points="717,777.3574 764,817.3574 760,786.3574 	"/>
	<polygon fill="#FCD23D" points="700,820.3574 764,817.3574 717,777.3574 	"/>
	<polygon fill="#FCD23D" points="709,739.3574 746,746.3574 764,678.3574 	"/>
	<polygon fill="#D01891" points="703,678.3574 709,739.3574 764,678.3574 	"/>
	<path fill="#9E58A2" d="M717.2825,648.1857L764,678.3574l1-25l-47.2629-5.7873
		C717.5858,647.7755,717.4343,647.9807,717.2825,648.1857z"/>
	<path fill="#87E7E3" d="M717.7371,647.5701L765,653.3574l-9-43l-34.3904,31.8112
		C720.3464,643.9794,719.0552,645.7798,717.7371,647.5701z"/>
	<path fill="#46BAEB" d="M713.6381,652.9897L703,678.3574h61l-46.7175-30.1718
		C716.0901,649.7952,714.8751,651.3965,713.6381,652.9897z"/>
	<path fill="#9E58A2" d="M751.0742,93.9324c-3.6393-2.1425-7.3066-4.2544-11.0244-6.3108
		c-1.5286-0.8612-3.0624-1.7003-4.5951-2.5438L749,98.3574L751.0742,93.9324z"/>
	<polygon fill="#FDCD19" points="719.2051,1088.0818 718.9514,1088.0818 719,1088.3574 	"/>
	<polygon fill="#D01891" points="743,245.3574 745,200.3574 717,229.3574 	"/>
	<path fill="#85DC34" d="M708,910.3574l12.6962,5.6428c8.906-4.5388,17.6757-9.3706,26.2904-14.5306L750,876.3574L708,910.3574z"/>
	<polygon fill="#FDDA65" points="711,1174.3574 720,1224.3574 757,1180.3574 	"/>
	<path fill="#07ACEA" d="M721.6096,642.1686L756,610.3574l-14.2876-2.5645C736.0383,619.6544,729.3306,631.1,721.6096,642.1686z"/>
	<polygon fill="#EC752E" points="759,1130.3574 745,1104.3574 704,1140.3574 	"/>
	<path fill="#FDCD19" d="M730.3242,365.9158c1.8933,3.3955,3.7003,6.7915,5.4392,10.1891L747,364.3574h-17.5614
		C729.7332,364.8777,730.0322,365.3921,730.3242,365.9158z"/>
	<path fill="#0461C8" d="M749,98.3574l-13.5453-13.2797c-10.4308-5.7404-20.9596-11.0741-31.5819-15.9928L715,108.3574L749,98.3574z
		"/>
	<polygon fill="#DE4F9B" points="746,325.3574 755,292.3574 714,322.3574 	"/>
	<polygon fill="#D01891" points="745,200.3574 716,153.3574 709,196.3574 	"/>
	<polygon fill="#FCD23D" points="708,910.3574 750,876.3574 709,875.3574 	"/>
	<polygon fill="#07ACEA" points="755,292.3574 716,278.3574 714,322.3574 	"/>
	<polygon fill="#9E58A2" points="747,364.3574 746,325.3574 714,322.3574 	"/>
	<path fill="#FDDA65" d="M711.0099,336.3113c6.6481,8.7339,12.7817,18.0752,18.4287,28.0461H747l-33-42L711.0099,336.3113z"/>
	<polygon fill="#FCD23D" points="714,1282.3574 750,1269.3574 720,1224.3574 	"/>
	<polygon fill="#0461C8" points="709,739.3574 717,777.3574 746,746.3574 	"/>
	<polygon fill="#85DC34" points="745,1104.3574 719,1088.3574 704,1140.3574 	"/>
	<polygon fill="#FDDA65" points="717,229.3574 745,200.3574 709,196.3574 	"/>
	<path fill="#D01891" d="M707.4851,922.4581c4.4387-2.0769,8.8418-4.2311,13.2111-6.4579L708,910.3574L707.4851,922.4581z"/>
	<polygon fill="#0EB3A4" points="743,245.3574 717,229.3574 716,278.3574 	"/>
	<path fill="#B261BD" d="M676.3691,692.624c-0.3845,0.3403-0.765,0.6917-1.1506,1.0292L709,739.3574l-6-61L676.3691,692.624z"/>
	<path fill="#0461C8" d="M674.9751,693.8679L673,734.3574l36,5l-33.7815-45.7043
		C675.1372,693.7243,675.0564,693.7968,674.9751,693.8679z"/>
	<polygon fill="#85DC34" points="711,1174.3574 654,1182.3574 664,1236.3574 	"/>
	<polygon fill="#B261BD" points="664,1284.3574 714,1282.3574 664,1236.3574 	"/>
	<path fill="#FDCD19" d="M703.8728,69.085c-10.2212-4.7327-20.5289-9.0793-30.9161-13.0481L715,108.3574L703.8728,69.085z"/>
	<path fill="#FDDA65" d="M715,108.3574l-42.0433-52.3206c-1.1207-0.4282-2.2401-0.8643-3.3627-1.2834L660,111.3574L715,108.3574z"/>
	<polygon fill="#46BAEB" points="715,108.3574 660,111.3574 657,138.3574 	"/>
	<polygon fill="#46BAEB" points="714,322.3574 716,278.3574 662,276.3574 	"/>
	<polygon fill="#D01891" points="716,153.3574 715,108.3574 657,138.3574 	"/>
	<polygon fill="#FDDA65" points="716,278.3574 717,229.3574 668,245.3574 	"/>
	<polygon fill="#843895" points="719,1088.3574 664,1103.3574 704,1140.3574 	"/>
	<polygon fill="#0BA251" points="718.9514,1088.0818 718.6277,1088.0818 719,1088.3574 	"/>
	<polygon fill="#07ACEA" points="664,1236.3574 714,1282.3574 720,1224.3574 	"/>
	<polygon fill="#9E58A2" points="664,1236.3574 720,1224.3574 711,1174.3574 	"/>
	<polygon fill="#FCD23D" points="709,875.3574 700,820.3574 664,871.3574 	"/>
	<path fill="#0BA251" d="M702.8674,326.2197c2.7954,3.2703,5.5098,6.6329,8.1425,10.0916L714,322.3574L702.8674,326.2197z"/>
	<polygon fill="#E4282E" points="709,196.3574 716,153.3574 662,198.3574 	"/>
	<polygon fill="#07ACEA" points="700,820.3574 717,777.3574 659,779.3574 	"/>
	<polygon fill="#843895" points="719,1088.3574 718.6277,1088.0818 665.4688,1088.0818 664,1103.3574 	"/>
	<polygon fill="#87E7E3" points="664,871.3574 700,820.3574 671,822.3574 	"/>
	<polygon fill="#85DC34" points="659,779.3574 709,739.3574 673,734.3574 	"/>
	<polygon fill="#9E58A2" points="659,779.3574 717,777.3574 709,739.3574 	"/>
	<path fill="#0BA251" d="M663,919.3574l16.8563,14.8963c9.354-3.6158,18.5619-7.5533,27.6288-11.7957L708,910.3574L663,919.3574z"/>
	<polygon fill="#843895" points="709,196.3574 662,198.3574 668,245.3574 	"/>
	<polygon fill="#843895" points="716,278.3574 668,245.3574 662,276.3574 	"/>
	<polygon fill="#0461C8" points="716,153.3574 657,138.3574 662,198.3574 	"/>
	<polygon fill="#DE4F9B" points="717,229.3574 709,196.3574 668,245.3574 	"/>
	<path fill="#FDCD19" d="M662,276.3574l0.6232,13.0859c14.9835,10.652,28.3573,22.87,40.2443,36.7764L714,322.3574L662,276.3574z"/>
	<path fill="#E4282E" d="M697.2852,672.1915l5.7148,6.166l10.6381-25.3677C708.5642,659.5244,703.1152,665.9236,697.2852,672.1915z"
		/>
	<polygon fill="#0461C8" points="664,871.3574 708,910.3574 709,875.3574 	"/>
	<polygon fill="#FDDA65" points="664,1284.3574 694.0906,1303.1641 706.2938,1303.1641 714,1282.3574 	"/>
	<polygon fill="#3C4192" points="671,822.3574 700,820.3574 659,779.3574 	"/>
	<polygon fill="#EC752E" points="704,1140.3574 664,1142.3574 711,1174.3574 	"/>
	<polygon fill="#9E58A2" points="663,919.3574 708,910.3574 664,871.3574 	"/>
	<polygon fill="#843895" points="664,1142.3574 654,1182.3574 711,1174.3574 	"/>
	<polygon fill="#07ACEA" points="704,1140.3574 664,1103.3574 664,1142.3574 	"/>
	<path fill="#07ACEA" d="M656.6978,942.4655c7.813-2.53,15.5342-5.2645,23.1586-8.2118L663,919.3574L656.6978,942.4655z"/>
	<path fill="#B261BD" d="M689.5598,680.2225c-4.3281,4.3283-8.7278,8.4518-13.1907,12.4014L703,678.3574l-5.7148-6.166
		C694.7747,674.8906,692.2112,677.5714,689.5598,680.2225z"/>
	<polygon fill="#0461C8" points="658.4686,1303.1641 694.0906,1303.1641 664,1284.3574 	"/>
	<path fill="#3C4192" d="M648.7471,280.3052c2.6951,1.6426,5.3441,3.328,7.9457,5.0585L662,276.3574L648.7471,280.3052z"/>
	<polygon fill="#0EB3A4" points="662,198.3574 657,138.3574 623,160.3574 	"/>
	<polygon fill="#0BA251" points="654,1182.3574 624,1187.3574 664,1236.3574 	"/>
	<polygon fill="#0461C8" points="622,875.3574 663,919.3574 664,871.3574 	"/>
	<path fill="#FDDA65" d="M656.6927,285.3636c2.0045,1.3333,3.9807,2.6937,5.9304,4.0797L662,276.3574L656.6927,285.3636z"/>
	<polygon fill="#B261BD" points="668,245.3574 662,198.3574 630,235.3574 	"/>
	<polygon fill="#0BA251" points="613.8103,1086.6274 613.8103,1083.1616 610,1085.3574 	"/>
	<polygon fill="#0BA251" points="665.4688,1088.0818 618.1733,1088.0818 664,1103.3574 	"/>
	<path fill="#FCD23D" d="M660,111.3574l9.594-56.604c-2.0626-0.7705-4.1289-1.5237-6.1978-2.2639L620,53.3574L660,111.3574z"/>
	<polygon fill="#D01891" points="671,822.3574 659,779.3574 613,815.3574 	"/>
	<polygon fill="#9E58A2" points="622,875.3574 664,871.3574 671,822.3574 	"/>
	<polygon fill="#B261BD" points="613,815.3574 622,875.3574 671,822.3574 	"/>
	<polygon fill="#3C4192" points="623,741.3574 659,779.3574 673,734.3574 	"/>
	<path fill="#FDDA65" d="M622.1824,729.6371L623,741.3574l50-7l-27.0945-18.4038
		C638.1909,721.0001,630.2876,725.5635,622.1824,729.6371z"/>
	<path fill="#FDCD19" d="M673,734.3574l1.9751-40.4896c-9.3804,8.1926-19.0671,15.5428-29.0696,22.0858L673,734.3574z"/>
	<polygon fill="#3C4192" points="662,198.3574 623,160.3574 626,195.3574 	"/>
	<polygon fill="#FDCD19" points="610,1277.3574 664,1284.3574 664,1236.3574 	"/>
	<polygon fill="#9E58A2" points="613.8103,1059.5001 613.8103,1053.8499 608,1060.3574 	"/>
	<polygon fill="#FCD23D" points="610,1085.3574 613.8103,1083.1616 613.8103,1059.5001 608,1060.3574 	"/>
	<polygon fill="#0EB3A4" points="660,111.3574 620,53.3574 618,115.3574 	"/>
	<polygon fill="#FDDA65" points="613,909.3574 663,919.3574 622,875.3574 	"/>
	<polygon fill="#FDCD19" points="613.8103,1485.0377 613.8103,1453.2903 612,1453.3574 	"/>
	<polygon fill="#3C4192" points="613.8103,1453.2903 613.8103,1446.5042 612,1453.3574 	"/>
	<polygon fill="#DE4F9B" points="613,815.3574 659,779.3574 614,789.3574 	"/>
	<polygon fill="#07ACEA" points="664,1103.3574 610,1135.3574 664,1142.3574 	"/>
	<polygon fill="#0BA251" points="668,245.3574 630,235.3574 662,276.3574 	"/>
	<path fill="#FDCD19" d="M663.3962,52.4895c-9.6776-3.463-19.4222-6.5991-29.2307-9.4021L620,53.3574L663.3962,52.4895z"/>
	<polygon fill="#843895" points="664,1236.3574 624,1187.3574 608,1234.3574 	"/>
	<polygon fill="#9E58A2" points="608,1234.3574 610,1277.3574 664,1236.3574 	"/>
	<polygon fill="#3C4192" points="613.8103,1053.8499 613.8103,1025.4956 608,1060.3574 	"/>
	<polygon fill="#0461C8" points="630,235.3574 662,198.3574 626,195.3574 	"/>
	<polygon fill="#FDDA65" points="664,1142.3574 610,1135.3574 654,1182.3574 	"/>
	<polygon fill="#0461C8" points="654,1182.3574 610,1135.3574 624,1187.3574 	"/>
	<polygon fill="#0461C8" points="610,1277.3574 637.6949,1303.1641 658.4686,1303.1641 664,1284.3574 	"/>
	<polygon fill="#87E7E3" points="620.2151,1303.1641 637.6949,1303.1641 610,1277.3574 	"/>
	<path fill="#85DC34" d="M613,909.3574l34.3544,36.0302c3.1305-0.9383,6.2424-1.918,9.3434-2.9221L663,919.3574L613,909.3574z"/>
	<polygon fill="#843895" points="610,1135.3574 664,1103.3574 618.1733,1088.0818 613.8103,1088.0818 613.8103,1086.6274 
		610,1085.3574 	"/>
	<polygon fill="#9E58A2" points="657,138.3574 660,111.3574 618,115.3574 	"/>
	<path fill="#87E7E3" d="M635.0857,272.5457l0.8053,0.432c4.402,2.3372,8.6819,4.7833,12.8561,7.3275L662,276.3574l-32-41
		l-8.2666,30.3108C626.1821,267.8328,630.6318,270.1198,635.0857,272.5457z"/>
	<polygon fill="#0EB3A4" points="614,789.3574 659,779.3574 623,741.3574 	"/>
	<path fill="#3C4192" d="M634.1655,43.0874c-4.7073-1.345-9.4297-2.6111-14.1655-3.8037v14.0737L634.1655,43.0874z"/>
	<path fill="#DE4F9B" d="M619.2104,952.8302c9.5066-2.197,18.8923-4.6694,28.1439-7.4426L613,909.3574L619.2104,952.8302z"/>
	<polygon fill="#87E7E3" points="657,138.3574 618,115.3574 623,160.3574 	"/>
	<polygon fill="#843895" points="612,1453.3574 578,1412.3574 583,1447.3574 	"/>
	<polygon fill="#DE4F9B" points="608,1060.3574 613.8103,1025.4956 613.8103,996.2753 573,1011.3574 	"/>
	<polygon fill="#87E7E3" points="618,115.3574 620,53.3574 580,99.3574 	"/>
	<path fill="#87E7E3" d="M584,925.3574l29.8103,32.2274v-3.522c1.8071-0.3949,3.6021-0.8171,5.4001-1.2326L613,909.3574
		L584,925.3574z"/>
	<polygon fill="#FDCD19" points="579,869.3574 622,875.3574 613,815.3574 	"/>
	<polygon fill="#DE4F9B" points="614,789.3574 623,741.3574 577,777.3574 	"/>
	<polygon fill="#85DC34" points="623,160.3574 618,115.3574 573,153.3574 	"/>
	<polygon fill="#0BA251" points="624,1187.3574 610,1135.3574 569,1177.3574 	"/>
	<polygon fill="#FDCD19" points="613.8103,1394.9619 613.8103,1364.4088 565,1373.3574 	"/>
	<polygon fill="#0BA251" points="612,1453.3574 613.8103,1446.5042 613.8103,1403.4048 578,1412.3574 	"/>
	<polygon fill="#B261BD" points="613.8103,1553.0599 613.8103,1488.5508 563,1540.3574 	"/>
	<polygon fill="#FDCD19" points="613.8103,1593.8937 613.8103,1564.2151 580,1584.3574 	"/>
	<polygon fill="#46BAEB" points="613.8103,1354.4474 613.8103,1324.3774 567,1321.3574 	"/>
	<polygon fill="#3C4192" points="567,1321.3574 613.8103,1324.3774 613.8103,1303.1641 620.2151,1303.1641 610,1277.3574 	"/>
	<path fill="#9E58A2" d="M621.7334,265.6682L630,235.3574L604.7859,258.05C610.4368,260.3804,616.0842,262.9192,621.7334,265.6682z"
		/>
	<path fill="#0EB3A4" d="M574.2495,247.4971c10.2126,2.8497,20.3806,6.365,30.5364,10.553L630,235.3574l-57,5L574.2495,247.4971z"/>
	<polygon fill="#87E7E3" points="630,235.3574 626,195.3574 573,240.3574 	"/>
	<path fill="#87E7E3" d="M592.957,741.9243L623,741.3574l-0.8176-11.7203C612.7188,734.3936,602.9797,738.4832,592.957,741.9243z"/>
	<polygon fill="#DE4F9B" points="578,1412.3574 613.8103,1403.4048 613.8103,1394.9619 565,1373.3574 	"/>
	<polygon fill="#85DC34" points="626,195.3574 623,160.3574 566,186.3574 	"/>
	<polygon fill="#87E7E3" points="626,195.3574 566,186.3574 573,240.3574 	"/>
	<polygon fill="#0BA251" points="620,53.3574 568,66.3574 580,99.3574 	"/>
	<polygon fill="#87E7E3" points="581,813.3574 579,869.3574 613,815.3574 	"/>
	<path fill="#9E58A2" d="M620,39.2837c-8.1383-2.0496-16.3191-3.8676-24.5381-5.4658L620,53.3574V39.2837z"/>
	<polygon fill="#B261BD" points="608,1234.3574 624,1187.3574 585,1236.3574 	"/>
	<polygon fill="#843895" points="624,1187.3574 569,1177.3574 585,1236.3574 	"/>
	<polygon fill="#07ACEA" points="565,1373.3574 613.8103,1364.4088 613.8103,1354.4474 567,1321.3574 	"/>
	<polygon fill="#FDDA65" points="580,1584.3574 613.8103,1564.2151 613.8103,1553.0599 563,1540.3574 	"/>
	<polygon fill="#DE4F9B" points="610,1135.3574 610,1085.3574 573,1106.3574 	"/>
	<polygon fill="#0EB3A4" points="563,1540.3574 613.8103,1488.5508 613.8103,1488.3612 565,1489.3574 	"/>
	<path fill="#FDDA65" d="M571.1837,748.2761L577,777.3574l46-36l-30.043,0.5668
		C585.8435,744.3665,578.5911,746.4913,571.1837,748.2761z"/>
	<polygon fill="#9E58A2" points="623,160.3574 573,153.3574 566,186.3574 	"/>
	<polygon fill="#FDCD19" points="608,1060.3574 573,1011.3574 569,1048.3574 	"/>
	<polygon fill="#87E7E3" points="565.1702,1625.3574 572.3333,1625.3574 613.8103,1598.6936 613.8103,1593.8937 580,1584.3574 	"/>
	<polygon fill="#3C4192" points="613.8103,1625.3574 613.8103,1598.6936 572.3333,1625.3574 	"/>
	<polygon fill="#87E7E3" points="579,869.3574 613,909.3574 622,875.3574 	"/>
	<path fill="#87E7E3" d="M620,53.3574l-24.5381-19.5396c-9.5457-1.8562-19.1431-3.4122-28.7903-4.6577L568,66.3574L620,53.3574z"/>
	<polygon fill="#46BAEB" points="613.8103,991.8587 613.8103,965.7426 565,968.3574 	"/>
	<polygon fill="#0461C8" points="585,1236.3574 610,1277.3574 608,1234.3574 	"/>
	<polygon fill="#46BAEB" points="565,968.3574 613.8103,965.7426 613.8103,957.5848 584,925.3574 	"/>
	<polygon fill="#843895" points="618,115.3574 580,99.3574 573,153.3574 	"/>
	<polygon fill="#85DC34" points="573,1011.3574 613.8103,996.2753 613.8103,991.8587 565,968.3574 	"/>
	<polygon fill="#85DC34" points="583,1447.3574 613.8103,1488.1064 613.8103,1485.0377 612,1453.3574 	"/>
	<polygon fill="#46BAEB" points="573,1272.3574 610,1277.3574 585,1236.3574 	"/>
	<polygon fill="#0BA251" points="567,1321.3574 610,1277.3574 573,1272.3574 	"/>
	<polygon fill="#B261BD" points="581,813.3574 613,815.3574 614,789.3574 	"/>
	<polygon fill="#DE4F9B" points="569,1177.3574 610,1135.3574 563,1138.3574 	"/>
	<polygon fill="#0461C8" points="565,1489.3574 613.8103,1488.3612 613.8103,1488.1064 583,1447.3574 	"/>
	<polygon fill="#DE4F9B" points="584,925.3574 613,909.3574 579,869.3574 	"/>
	<polygon fill="#DE4F9B" points="577,777.3574 581,813.3574 614,789.3574 	"/>
	<polygon fill="#07ACEA" points="563,1138.3574 610,1135.3574 573,1106.3574 	"/>
	<polygon fill="#0461C8" points="610,1085.3574 608,1060.3574 569,1048.3574 	"/>
	<polygon fill="#07ACEA" points="573,1106.3574 610,1085.3574 569,1048.3574 	"/>
	<path fill="#0461C8" d="M568,66.3574l-1.3284-37.1973c-4.5256-0.5845-9.0612-1.105-13.6077-1.5546L533,54.3574L568,66.3574z"/>
	<polygon fill="#0EB3A4" points="540,1278.3574 567,1321.3574 573,1272.3574 	"/>
	<polygon fill="#FCD23D" points="573,1106.3574 569,1048.3574 534,1091.3574 	"/>
	<polygon fill="#0461C8" points="534,873.3574 579,869.3574 537,820.3574 	"/>
	<polygon fill="#FDDA65" points="534,1591.3574 558.6499,1625.3574 565.1702,1625.3574 580,1584.3574 	"/>
	<path fill="#87E7E3" d="M556.8497,243.2938c5.8182,1.1891,11.6163,2.5894,17.3998,4.2032L573,240.3574L556.8497,243.2938z"/>
	<polygon fill="#3C4192" points="573,153.3574 580,99.3574 528,142.3574 	"/>
	<polygon fill="#DE4F9B" points="580,99.3574 526,103.3574 528,142.3574 	"/>
	<polygon fill="#FDDA65" points="534,785.3574 581,813.3574 577,777.3574 	"/>
	<polygon fill="#843895" points="537,820.3574 579,869.3574 581,813.3574 	"/>
	<polygon fill="#07ACEA" points="565,1489.3574 583,1447.3574 537,1453.3574 	"/>
	<polygon fill="#0461C8" points="583,1447.3574 578,1412.3574 536,1416.3574 	"/>
	<polygon fill="#46BAEB" points="537,1453.3574 583,1447.3574 536,1416.3574 	"/>
	<polygon fill="#B261BD" points="565,968.3574 584,925.3574 532,925.3574 	"/>
	<polygon fill="#0EB3A4" points="534,873.3574 584,925.3574 579,869.3574 	"/>
	<polygon fill="#EC752E" points="532,925.3574 584,925.3574 534,873.3574 	"/>
	<polygon fill="#FDDA65" points="585,1236.3574 569,1177.3574 535,1178.3574 	"/>
	<polygon fill="#E4282E" points="520,1241.3574 585,1236.3574 535,1178.3574 	"/>
	<polygon fill="#87E7E3" points="573,1272.3574 585,1236.3574 520,1241.3574 	"/>
	<path fill="#87E7E3" d="M556.8497,243.2938L573,240.3574l-7-54l-23.584,54.4246
		C547.2434,241.4756,552.0535,242.3136,556.8497,243.2938z"/>
	<polygon fill="#B261BD" points="580,1584.3574 563,1540.3574 529,1555.3574 	"/>
	<polygon fill="#FDCD19" points="540,1278.3574 573,1272.3574 520,1241.3574 	"/>
	<polygon fill="#87E7E3" points="534,1591.3574 580,1584.3574 529,1555.3574 	"/>
	<polygon fill="#0EB3A4" points="537,820.3574 581,813.3574 534,785.3574 	"/>
	<polygon fill="#843895" points="565,1373.3574 567,1321.3574 525,1355.3574 	"/>
	<polygon fill="#FDDA65" points="573,1011.3574 565,968.3574 529,993.3574 	"/>
	<path fill="#9E58A2" d="M546.4758,752.9381L577,777.3574l-5.8163-29.0813C563.1271,750.2174,554.8928,751.7695,546.4758,752.9381z"
		/>
	<polygon fill="#85DC34" points="578,1412.3574 565,1373.3574 536,1416.3574 	"/>
	<polygon fill="#FDDA65" points="580,99.3574 568,66.3574 526,103.3574 	"/>
	<path fill="#3C4192" d="M542.416,240.782L566,186.3574l-47,11l18.3208,42.7488C539.0214,240.3147,540.72,240.5383,542.416,240.782z
		"/>
	<polygon fill="#3C4192" points="534,1091.3574 569,1048.3574 527,1061.3574 	"/>
	<path fill="#0461C8" d="M536.3416,754.1363L534,785.3574l43-8l-30.5242-24.4193
		C543.1292,753.4028,539.7468,753.7932,536.3416,754.1363z"/>
	<polygon fill="#87E7E3" points="563,1540.3574 565,1489.3574 520,1501.3574 	"/>
	<polygon fill="#B261BD" points="569,1177.3574 563,1138.3574 535,1178.3574 	"/>
	<polygon fill="#FCD23D" points="569,1048.3574 529,993.3574 527,1061.3574 	"/>
	<polygon fill="#EC752E" points="569,1048.3574 573,1011.3574 529,993.3574 	"/>
	<polygon fill="#87E7E3" points="573,153.3574 528,142.3574 566,186.3574 	"/>
	<polygon fill="#85DC34" points="563,1138.3574 573,1106.3574 527,1134.3574 	"/>
	<polygon fill="#843895" points="527,1134.3574 573,1106.3574 534,1091.3574 	"/>
	<polygon fill="#3C4192" points="536.4286,1625.3574 558.6499,1625.3574 534,1591.3574 	"/>
	<polygon fill="#FDCD19" points="522,960.3574 565,968.3574 532,925.3574 	"/>
	<path fill="#9E58A2" d="M553.064,27.6056c-9.3394-0.9235-18.7239-1.5525-28.1471-1.9063L533,54.3574L553.064,27.6056z"/>
	<polygon fill="#843895" points="518,1319.3574 567,1321.3574 540,1278.3574 	"/>
	<polygon fill="#46BAEB" points="568,66.3574 533,54.3574 526,103.3574 	"/>
	<polygon fill="#B261BD" points="566,186.3574 528,142.3574 519,197.3574 	"/>
	<polygon fill="#46BAEB" points="525,1355.3574 567,1321.3574 518,1319.3574 	"/>
	<polygon fill="#E4282E" points="535,1178.3574 563,1138.3574 527,1134.3574 	"/>
	<polygon fill="#DE4F9B" points="536,1416.3574 565,1373.3574 525,1355.3574 	"/>
	<polygon fill="#DE4F9B" points="529,1555.3574 563,1540.3574 520,1501.3574 	"/>
	<polygon fill="#843895" points="520,1501.3574 565,1489.3574 537,1453.3574 	"/>
	<polygon fill="#07ACEA" points="529,993.3574 565,968.3574 522,960.3574 	"/>
	<polygon fill="#DE4F9B" points="520,1501.3574 490,1507.3574 529,1555.3574 	"/>
	<polygon fill="#9E58A2" points="490,1507.3574 481,1544.3574 529,1555.3574 	"/>
	<polygon fill="#DE4F9B" points="529,993.3574 493,1057.3574 527,1061.3574 	"/>
	<polygon fill="#9E58A2" points="483,993.3574 493,1057.3574 529,993.3574 	"/>
	<polygon fill="#843895" points="533,54.3574 479,65.3574 526,103.3574 	"/>
	<polygon fill="#46BAEB" points="534,1091.3574 489,1087.3574 527,1134.3574 	"/>
	<polygon fill="#3C4192" points="532,925.3574 534,873.3574 475,903.3574 	"/>
	<polygon fill="#D01891" points="475,903.3574 534,873.3574 489,866.3574 	"/>
	<polygon fill="#0461C8" points="487,1192.3574 520,1241.3574 535,1178.3574 	"/>
	<polygon fill="#07ACEA" points="536,1416.3574 525,1355.3574 496,1359.3574 	"/>
	<polygon fill="#3C4192" points="496,1359.3574 482,1406.3574 536,1416.3574 	"/>
	<polygon fill="#0461C8" points="489.8918,1625.3574 536.4286,1625.3574 534,1591.3574 	"/>
	<polygon fill="#85DC34" points="536,1416.3574 481,1446.3574 537,1453.3574 	"/>
	<polygon fill="#DE4F9B" points="537,1453.3574 481,1446.3574 520,1501.3574 	"/>
	<polygon fill="#0BA251" points="489,866.3574 534,873.3574 537,820.3574 	"/>
	<polygon fill="#0BA251" points="489,866.3574 537,820.3574 478,816.3574 	"/>
	<polygon fill="#9E58A2" points="478,816.3574 537,820.3574 534,785.3574 	"/>
	<path fill="#843895" d="M515.0527,755.4869L485,769.3574l49,16l2.3416-31.2211
		C529.3691,754.8389,522.2754,755.2917,515.0527,755.4869z"/>
	<polygon fill="#843895" points="540,1278.3574 478,1310.3574 518,1319.3574 	"/>
	<polygon fill="#85DC34" points="473,1264.3574 478,1310.3574 540,1278.3574 	"/>
	<polygon fill="#E4282E" points="520,1241.3574 473,1264.3574 540,1278.3574 	"/>
	<path fill="#3C4192" d="M489.7583,238.8092c2.6782-0.181,5.3615-0.3182,8.0498-0.4125L487,236.3574L489.7583,238.8092z"/>
	<path fill="#87E7E3" d="M497.8081,238.3967c2.9355-0.103,5.877-0.1589,8.8259-0.1589c10.3308,0,20.5487,0.6256,30.6868,1.8684
		L519,197.3574l-32,39L497.8081,238.3967z"/>
	<polygon fill="#FCD23D" points="519,197.3574 528,142.3574 479,190.3574 	"/>
	<polygon fill="#85DC34" points="479,1598.3574 485.3,1625.3574 489.8918,1625.3574 534,1591.3574 	"/>
	<polygon fill="#87E7E3" points="527,1134.3574 487,1192.3574 535,1178.3574 	"/>
	<polygon fill="#FDCD19" points="489,1087.3574 482,1128.3574 527,1134.3574 	"/>
	<polygon fill="#E4282E" points="479,1598.3574 534,1591.3574 529,1555.3574 	"/>
	<polygon fill="#87E7E3" points="482,1406.3574 481,1446.3574 536,1416.3574 	"/>
	<path fill="#46BAEB" d="M506.634,755.6135c-8.449,0-16.7256-0.3539-24.8474-1.0377L485,769.3574l30.0527-13.8705
		C512.2632,755.5623,509.4617,755.6135,506.634,755.6135z"/>
	<polygon fill="#0461C8" points="527,1134.3574 482,1128.3574 487,1192.3574 	"/>
	<polygon fill="#0EB3A4" points="528,142.3574 474,144.3574 479,190.3574 	"/>
	<polygon fill="#FDCD19" points="526,103.3574 487,114.3574 528,142.3574 	"/>
	<polygon fill="#FDCD19" points="527,1061.3574 489,1087.3574 534,1091.3574 	"/>
	<path fill="#FCD23D" d="M533,54.3574l-8.0831-28.6581c-3.8463-0.1444-7.6989-0.2443-11.5585-0.2936L479,65.3574L533,54.3574z"/>
	<polygon fill="#85DC34" points="485,769.3574 478,816.3574 534,785.3574 	"/>
	<path fill="#0461C8" d="M486.9014,239.0193c0.9518-0.0754,1.9041-0.1458,2.8569-0.2101L487,236.3574L486.9014,239.0193z"/>
	<polygon fill="#D01891" points="477,1228.3574 520,1241.3574 487,1192.3574 	"/>
	<polygon fill="#FCD23D" points="481,1544.3574 479,1598.3574 529,1555.3574 	"/>
	<polygon fill="#843895" points="522,960.3574 532,925.3574 475,903.3574 	"/>
	<polygon fill="#EC752E" points="481,1446.3574 490,1507.3574 520,1501.3574 	"/>
	<polygon fill="#DE4F9B" points="522,960.3574 483,993.3574 529,993.3574 	"/>
	<polygon fill="#843895" points="475,903.3574 475,968.3574 522,960.3574 	"/>
	<path fill="#B261BD" d="M513.3584,25.4058c-1.9956-0.0254-3.9915-0.0483-5.9905-0.0483c-6.7961,0-13.5696,0.1572-20.3228,0.4446
		L479,65.3574L513.3584,25.4058z"/>
	<polygon fill="#EC752E" points="525,1355.3574 518,1319.3574 496,1359.3574 	"/>
	<polygon fill="#B261BD" points="526,103.3574 479,65.3574 487,114.3574 	"/>
	<polygon fill="#EC752E" points="493,1057.3574 489,1087.3574 527,1061.3574 	"/>
	<polygon fill="#FDCD19" points="528,142.3574 487,114.3574 474,144.3574 	"/>
	<polygon fill="#0EB3A4" points="475,968.3574 483,993.3574 522,960.3574 	"/>
	<polygon fill="#9E58A2" points="519,197.3574 479,190.3574 487,236.3574 	"/>
	<polygon fill="#85DC34" points="518,1319.3574 478,1310.3574 496,1359.3574 	"/>
	<polygon fill="#E4282E" points="477,1228.3574 473,1264.3574 520,1241.3574 	"/>
	<polygon fill="#9E58A2" points="437,1451.3574 437,1503.3574 481,1446.3574 	"/>
	<polygon fill="#843895" points="448,781.3574 478,816.3574 485,769.3574 	"/>
	<polygon fill="#85DC34" points="482,1128.3574 445,1139.3574 487,1192.3574 	"/>
	<path fill="#DE4F9B" d="M484.0957,239.2617c0.9348-0.0847,1.8699-0.1682,2.8057-0.2424L487,236.3574L484.0957,239.2617z"/>
	<polygon fill="#9E58A2" points="478,816.3574 449,864.3574 489,866.3574 	"/>
	<polygon fill="#9E58A2" points="481,1446.3574 437,1503.3574 490,1507.3574 	"/>
	<path fill="#0461C8" d="M487.0452,25.802c-13.9283,0.5925-27.7629,1.7904-41.4915,3.6006L479,65.3574L487.0452,25.802z"/>
	<polygon fill="#0461C8" points="483,993.3574 446,1038.3574 493,1057.3574 	"/>
	<polygon fill="#0461C8" points="439,1361.3574 482,1406.3574 496,1359.3574 	"/>
	<polygon fill="#07ACEA" points="478,1310.3574 439,1361.3574 496,1359.3574 	"/>
	<polygon fill="#3C4192" points="481,1544.3574 439,1587.3574 479,1598.3574 	"/>
	<polygon fill="#FCD23D" points="479,190.3574 442,204.3574 487,236.3574 	"/>
	<polygon fill="#9E58A2" points="489,1087.3574 444,1100.3574 482,1128.3574 	"/>
	<polygon fill="#3C4192" points="428,957.3574 475,968.3574 475,903.3574 	"/>
	<polygon fill="#85DC34" points="478,1310.3574 434,1322.3574 439,1361.3574 	"/>
	<polygon fill="#87E7E3" points="444,823.3574 449,864.3574 478,816.3574 	"/>
	<path fill="#46BAEB" d="M463.5833,752.4232L485,769.3574l-3.2134-14.7816C475.6265,754.0573,469.5605,753.3374,463.5833,752.4232z"
		/>
	<path fill="#FDCD19" d="M484.0957,239.2617L487,236.3574l-50,2l1.1036,9.4913
		C453.3611,243.5104,468.6558,240.6628,484.0957,239.2617z"/>
	<polygon fill="#3C4192" points="487,114.3574 479,65.3574 429,99.3574 	"/>
	<polygon fill="#FDDA65" points="446,1038.3574 444,1100.3574 489,1087.3574 	"/>
	<polygon fill="#FCD23D" points="493,1057.3574 446,1038.3574 489,1087.3574 	"/>
	<polygon fill="#0EB3A4" points="445,1139.3574 430,1196.3574 487,1192.3574 	"/>
	<polygon fill="#87E7E3" points="449,864.3574 475,903.3574 489,866.3574 	"/>
	<polygon fill="#0EB3A4" points="490,1507.3574 437,1503.3574 481,1544.3574 	"/>
	<polygon fill="#B261BD" points="479,65.3574 437,67.3574 429,99.3574 	"/>
	<polygon fill="#9E58A2" points="428,907.3574 428,957.3574 475,903.3574 	"/>
	<polygon fill="#FCD23D" points="432,1551.3574 439,1587.3574 481,1544.3574 	"/>
	<polygon fill="#EC752E" points="430,1400.3574 482,1406.3574 439,1361.3574 	"/>
	<polygon fill="#E4282E" points="487,1192.3574 430,1196.3574 477,1228.3574 	"/>
	<polygon fill="#0461C8" points="442,204.3574 437,238.3574 487,236.3574 	"/>
	<polygon fill="#E4282E" points="474,144.3574 433,160.3574 479,190.3574 	"/>
	<polygon fill="#0BA251" points="482,1406.3574 437,1451.3574 481,1446.3574 	"/>
	<polygon fill="#0BA251" points="433,994.3574 446,1038.3574 483,993.3574 	"/>
	<path fill="#FDCD19" d="M443.7255,748.5858L448,781.3574l37-12l-21.4167-16.9342
		C456.8518,751.3938,450.2317,750.1196,443.7255,748.5858z"/>
	<polygon fill="#0EB3A4" points="457.1429,1625.3574 485.3,1625.3574 479,1598.3574 	"/>
	<polygon fill="#DE4F9B" points="487,114.3574 429,99.3574 474,144.3574 	"/>
	<polygon fill="#843895" points="473,1264.3574 428,1282.3574 478,1310.3574 	"/>
	<path fill="#9E58A2" d="M479,65.3574l-33.4463-35.9548c-2.306,0.3041-4.6095,0.6219-6.9094,0.9602L437,67.3574L479,65.3574z"/>
	<polygon fill="#0461C8" points="430,1400.3574 437,1451.3574 482,1406.3574 	"/>
	<polygon fill="#85DC34" points="437,1503.3574 432,1551.3574 481,1544.3574 	"/>
	<polygon fill="#843895" points="482,1128.3574 444,1100.3574 445,1139.3574 	"/>
	<polygon fill="#DE4F9B" points="475,968.3574 433,994.3574 483,993.3574 	"/>
	<polygon fill="#85DC34" points="432,1235.3574 473,1264.3574 477,1228.3574 	"/>
	<polygon fill="#0461C8" points="439,1587.3574 443.302,1625.3574 457.1429,1625.3574 479,1598.3574 	"/>
	<polygon fill="#FDCD19" points="444,823.3574 478,816.3574 448,781.3574 	"/>
	<polygon fill="#9E58A2" points="479,190.3574 433,160.3574 442,204.3574 	"/>
	<polygon fill="#87E7E3" points="430,1196.3574 432,1235.3574 477,1228.3574 	"/>
	<polygon fill="#85DC34" points="428,1282.3574 434,1322.3574 478,1310.3574 	"/>
	<polygon fill="#87E7E3" points="474,144.3574 429,99.3574 433,160.3574 	"/>
	<polygon fill="#843895" points="449,864.3574 428,907.3574 475,903.3574 	"/>
	<polygon fill="#FDCD19" points="428,957.3574 433,994.3574 475,968.3574 	"/>
	<polygon fill="#FDCD19" points="432,1235.3574 428,1282.3574 473,1264.3574 	"/>
	<polygon fill="#3C4192" points="429,99.3574 394,150.3574 433,160.3574 	"/>
	<polygon fill="#46BAEB" points="401,1416.3574 437,1451.3574 430,1400.3574 	"/>
	<polygon fill="#87E7E3" points="437,1451.3574 398.7261,1480.8602 398.7261,1491.3967 437,1503.3574 	"/>
	<path fill="#E4282E" d="M437,67.3574l1.6443-36.9946c-2.391,0.3518-4.7791,0.72-7.1633,1.1086L406,62.3574L437,67.3574z"/>
	<path fill="#FDDA65" d="M413.8053,739.4585L387,743.3574l10,43l35.8342-40.6122
		C426.3826,743.9062,420.038,741.8174,413.8053,739.4585z"/>
	<path fill="#3C4192" d="M438.1036,247.8488L437,238.3574l-12.9453,13.9161C428.7365,250.6606,433.4182,249.1809,438.1036,247.8488z
		"/>
	<polygon fill="#FDCD19" points="398.7261,1052.3115 398.7261,1086.4269 444,1100.3574 	"/>
	<polygon fill="#EC752E" points="397,786.3574 405,825.3574 444,823.3574 	"/>
	<polygon fill="#843895" points="404.3778,1625.3574 443.302,1625.3574 439,1587.3574 	"/>
	<polygon fill="#46BAEB" points="444,1100.3574 400,1151.3574 445,1139.3574 	"/>
	<polygon fill="#FDCD19" points="445,1139.3574 400,1151.3574 430,1196.3574 	"/>
	<polygon fill="#87E7E3" points="446,1038.3574 398.7261,1047.6268 398.7261,1052.3115 444,1100.3574 	"/>
	<polygon fill="#DE4F9B" points="433,994.3574 398.7261,1043.0625 398.7261,1047.6268 446,1038.3574 	"/>
	<polygon fill="#0461C8" points="397,786.3574 444,823.3574 448,781.3574 	"/>
	<path fill="#85DC34" d="M443.7255,748.5858c-3.6663-0.8643-7.2947-1.8154-10.8912-2.8406L397,786.3574l51-5L443.7255,748.5858z"/>
	<polygon fill="#87E7E3" points="400,881.3574 428,907.3574 449,864.3574 	"/>
	<polygon fill="#0EB3A4" points="405,825.3574 449,864.3574 444,823.3574 	"/>
	<polygon fill="#0BA251" points="405,825.3574 400,881.3574 449,864.3574 	"/>
	<path fill="#DE4F9B" d="M387.5613,727.6403L387,743.3574l26.8053-3.8989C404.8364,736.064,396.0947,732.1188,387.5613,727.6403z"/>
	<polygon fill="#D01891" points="444,1100.3574 398.7261,1086.4269 398.7261,1088.0818 392.4447,1088.0818 400,1151.3574 	"/>
	<polygon fill="#87E7E3" points="429,99.3574 395,103.3574 394,150.3574 	"/>
	<polygon fill="#D01891" points="439,1587.3574 398.7261,1591.467 398.7261,1625.3574 404.3778,1625.3574 	"/>
	<polygon fill="#B261BD" points="433,160.3574 384,200.3574 442,204.3574 	"/>
	<polygon fill="#FDCD19" points="398.7261,996.6423 398.7261,1043.0625 433,994.3574 	"/>
	<polygon fill="#B261BD" points="434,1322.3574 400,1362.3574 439,1361.3574 	"/>
	<polygon fill="#0BA251" points="398.7261,1449.5771 398.7261,1480.8602 437,1451.3574 	"/>
	<polygon fill="#DE4F9B" points="439,1361.3574 400,1362.3574 430,1400.3574 	"/>
	<polygon fill="#B261BD" points="442,204.3574 384,200.3574 437,238.3574 	"/>
	<polygon fill="#3C4192" points="437,1503.3574 398.7261,1537.3787 398.7261,1551.3574 432,1551.3574 	"/>
	<polygon fill="#07ACEA" points="401,1282.3574 428,1282.3574 432,1235.3574 	"/>
	<polygon fill="#843895" points="437,238.3574 384,200.3574 383,237.3574 	"/>
	<polygon fill="#9E58A2" points="432,1551.3574 398.7261,1583.8391 398.7261,1591.467 439,1587.3574 	"/>
	<polygon fill="#9E58A2" points="401,1282.3574 392.0829,1303.1641 398.7261,1303.1641 398.7261,1303.3746 428,1282.3574 	"/>
	<polygon fill="#843895" points="430,1196.3574 400,1151.3574 393,1191.3574 	"/>
	<polygon fill="#46BAEB" points="404,964.3574 433,994.3574 428,957.3574 	"/>
	<polygon fill="#87E7E3" points="428,1282.3574 398.7261,1303.3746 398.7261,1312.951 434,1322.3574 	"/>
	<polygon fill="#07ACEA" points="398.7261,1491.3967 398.7261,1537.3787 437,1503.3574 	"/>
	<polygon fill="#D01891" points="401,1416.3574 398.7261,1427.0776 398.7261,1449.5771 437,1451.3574 	"/>
	<path fill="#B261BD" d="M424.0547,252.2736L437,238.3574l-54-1l8.9629,28.1692
		C402.6842,260.3691,413.3691,255.9548,424.0547,252.2736z"/>
	<polygon fill="#87E7E3" points="437,67.3574 406,62.3574 429,99.3574 	"/>
	<path fill="#87E7E3" d="M431.481,31.4714c-11.0322,1.7986-21.9907,4.0044-32.8745,6.593L406,62.3574L431.481,31.4714z"/>
	<polygon fill="#87E7E3" points="428,907.3574 404,964.3574 428,957.3574 	"/>
	<polygon fill="#0BA251" points="383,910.3574 404,964.3574 428,907.3574 	"/>
	<polygon fill="#9E58A2" points="387,1220.3574 432,1235.3574 430,1196.3574 	"/>
	<polygon fill="#D01891" points="433,160.3574 394,150.3574 384,200.3574 	"/>
	<polygon fill="#D01891" points="398.7261,1551.3574 398.7261,1583.8391 432,1551.3574 	"/>
	<polygon fill="#B261BD" points="387,1220.3574 401,1282.3574 432,1235.3574 	"/>
	<polygon fill="#9E58A2" points="434,1322.3574 398.7261,1312.951 398.7261,1356.335 400,1362.3574 	"/>
	<polygon fill="#3C4192" points="393,1191.3574 387,1220.3574 430,1196.3574 	"/>
	<polygon fill="#D01891" points="406,62.3574 395,103.3574 429,99.3574 	"/>
	<polygon fill="#87E7E3" points="404,964.3574 398.7261,975.235 398.7261,996.6423 433,994.3574 	"/>
	<polygon fill="#0461C8" points="400,1362.3574 401,1416.3574 430,1400.3574 	"/>
	<polygon fill="#9E58A2" points="400,881.3574 383,910.3574 428,907.3574 	"/>
	<path fill="#B261BD" d="M373.2327,719.4942L387,743.3574l0.5613-15.7172C382.7183,725.0984,377.9409,722.3875,373.2327,719.4942z"
		/>
	<polygon fill="#DE4F9B" points="394,150.3574 361,155.3574 384,200.3574 	"/>
	<path fill="#DE4F9B" d="M395,103.3574l-42.2805-51.8896c-0.5122,0.1782-1.0256,0.3501-1.5374,0.53L355,107.3574L395,103.3574z"/>
	<polygon fill="#85DC34" points="395,103.3574 355,107.3574 394,150.3574 	"/>
	<polygon fill="#0461C8" points="398.7261,1356.335 398.7261,1361.0544 400,1362.3574 	"/>
	<polygon fill="#0461C8" points="400,1151.3574 392.4447,1088.0818 378.7952,1088.0818 353,1095.3574 	"/>
	<polygon fill="#9E58A2" points="400,1151.3574 353,1095.3574 346,1138.3574 	"/>
	<polygon fill="#DE4F9B" points="393,1191.3574 400,1151.3574 355,1173.3574 	"/>
	<polygon fill="#0BA251" points="400,1362.3574 398.7261,1362.694 398.7261,1414.673 401,1416.3574 	"/>
	<polygon fill="#E4282E" points="398.7261,1414.673 398.7261,1416.3153 401,1416.3574 	"/>
	<polygon fill="#FDCD19" points="347,1272.3574 401,1282.3574 387,1220.3574 	"/>
	<path fill="#0EB3A4" d="M383,910.3574l-29.4016,30.0853c15.2268,5.4296,30.2769,9.9653,45.1277,13.5865v9.5041l5.2739,0.824
		L383,910.3574z"/>
	<polygon fill="#0EB3A4" points="349,827.3574 405,825.3574 397,786.3574 	"/>
	<polygon fill="#FDCD19" points="360,866.3574 400,881.3574 405,825.3574 	"/>
	<polygon fill="#0BA251" points="349,827.3574 360,866.3574 405,825.3574 	"/>
	<path fill="#DE4F9B" d="M406,62.3574L355.6648,50.46c-0.9821,0.3345-1.9646,0.6667-2.9453,1.0078L395,103.3574L406,62.3574z"/>
	<path fill="#46BAEB" d="M398.6064,38.0645c-14.4546,3.4377-28.7729,7.5706-42.9417,12.3955L406,62.3574L398.6064,38.0645z"/>
	<polygon fill="#FCD23D" points="352,782.3574 349,827.3574 397,786.3574 	"/>
	<path fill="#DE4F9B" d="M377.8972,272.6987c4.6978-2.5358,9.385-4.9204,14.0657-7.1721L383,237.3574l-28,37l15.3407,2.5568
		C372.8208,275.4744,375.3392,274.0691,377.8972,272.6987z"/>
	<polygon fill="#FDDA65" points="398.7261,963.5334 398.7261,975.235 404,964.3574 	"/>
	<polygon fill="#46BAEB" points="387,743.3574 352,782.3574 397,786.3574 	"/>
	<path fill="#87E7E3" d="M355,274.3574l-0.7834,12.7974c5.1855-3.5911,10.5541-7.0071,16.1241-10.2406L355,274.3574z"/>
	<polygon fill="#D01891" points="398.7261,1416.3153 398.7261,1427.0776 401,1416.3574 	"/>
	<polygon fill="#46BAEB" points="357,746.3574 352,782.3574 387,743.3574 	"/>
	<polygon fill="#46BAEB" points="394,150.3574 355,107.3574 361,155.3574 	"/>
	<polygon fill="#E4282E" points="398.7261,1361.0544 398.7261,1362.694 400,1362.3574 	"/>
	<polygon fill="#9E58A2" points="347,1272.3574 381.0494,1303.1641 392.0829,1303.1641 401,1282.3574 	"/>
	<polygon fill="#07ACEA" points="355,1173.3574 400,1151.3574 346,1138.3574 	"/>
	<polygon fill="#FDCD19" points="360,866.3574 383,910.3574 400,881.3574 	"/>
	<path fill="#0461C8" d="M357,708.6268v37.7306l30-3l-13.7673-23.8632C367.7317,716.1138,362.3225,712.4893,357,708.6268z"/>
	<polygon fill="#3C4192" points="338,1225.3574 347,1272.3574 387,1220.3574 	"/>
	<polygon fill="#FDCD19" points="353.1614,1303.1641 381.0494,1303.1641 347,1272.3574 	"/>
	<polygon fill="#FDCD19" points="378.7952,1088.0818 353,1088.0818 353,1095.3574 	"/>
	<polygon fill="#0BA251" points="355,1173.3574 387,1220.3574 393,1191.3574 	"/>
	<polygon fill="#0461C8" points="344,904.3574 383,910.3574 360,866.3574 	"/>
	<path fill="#FDDA65" d="M344,904.3574l-2.5264,31.5803c4.0535,1.5628,8.0959,3.0684,12.1248,4.5051L383,910.3574L344,904.3574z"/>
	<polygon fill="#0461C8" points="346,249.3574 355,274.3574 383,237.3574 	"/>
	<polygon fill="#D01891" points="384,200.3574 345,198.3574 383,237.3574 	"/>
	<polygon fill="#FCD23D" points="384,200.3574 361,155.3574 345,198.3574 	"/>
	<polygon fill="#0EB3A4" points="338,1225.3574 387,1220.3574 355,1173.3574 	"/>
	<polygon fill="#843895" points="383,237.3574 345,198.3574 346,249.3574 	"/>
	<path fill="#0BA251" d="M311,921.3574l2.5468,2.8981c9.3689,4.22,18.6797,8.1171,27.9269,11.6822L344,904.3574L311,921.3574z"/>
	<polygon fill="#85DC34" points="345,198.3574 316,240.3574 346,249.3574 	"/>
	<polygon fill="#3C4192" points="307,1274.3574 310.2007,1303.1641 328.2959,1303.1641 347,1272.3574 	"/>
	<path fill="#DE4F9B" d="M348.3981,53.0001c-14.7142,5.2761-29.2631,11.3031-43.6312,18.0769L316,98.3574L348.3981,53.0001z"/>
	<polygon fill="#0461C8" points="353,1088.0818 341.2307,1088.0818 353,1095.3574 	"/>
	<polygon fill="#0461C8" points="298,1179.3574 338,1225.3574 355,1173.3574 	"/>
	<path fill="#FDDA65" d="M354.2166,287.1548L355,274.3574l-54,19l26.4233,15.5432
		C335.7324,301.0117,344.6545,293.7766,354.2166,287.1548z"/>
	<polygon fill="#FDCD19" points="355,107.3574 316,98.3574 306,159.3574 	"/>
	<path fill="#D01891" d="M355,107.3574l-3.8179-55.3596c-0.9297,0.3269-1.8557,0.6694-2.7841,1.0023L316,98.3574L355,107.3574z"/>
	<polygon fill="#3C4192" points="328.2959,1303.1641 353.1614,1303.1641 347,1272.3574 	"/>
	<path fill="#FDDA65" d="M317.5258,673.7807L306,688.3574l28.059,1.6505c-3.4896-3.1493-6.9429-6.4051-10.3549-9.7854
		C321.594,678.0927,319.5459,675.9415,317.5258,673.7807z"/>
	<path fill="#D01891" d="M357,708.6268c-3.8279-2.7779-7.6097-5.6835-11.3481-8.7119L296,737.3574l61,9V708.6268z"/>
	<path fill="#87E7E3" d="M334.059,690.0079L306,688.3574l-10,49l49.6519-37.4424
		C341.7408,696.7468,337.8745,693.4513,334.059,690.0079z"/>
	<polygon fill="#843895" points="304,867.3574 344,904.3574 360,866.3574 	"/>
	<polygon fill="#DE4F9B" points="309,832.3574 360,866.3574 349,827.3574 	"/>
	<polygon fill="#0461C8" points="309,832.3574 304,867.3574 360,866.3574 	"/>
	<polygon fill="#B261BD" points="361,155.3574 355,107.3574 306,159.3574 	"/>
	<polygon fill="#0BA251" points="361,155.3574 306,159.3574 345,198.3574 	"/>
	<polygon fill="#FCD23D" points="353,1095.3574 306,1106.3574 346,1138.3574 	"/>
	<polygon fill="#B261BD" points="299,769.3574 352,782.3574 357,746.3574 	"/>
	<polygon fill="#85DC34" points="352,782.3574 309,832.3574 349,827.3574 	"/>
	<polygon fill="#46BAEB" points="346,1138.3574 314,1150.3574 355,1173.3574 	"/>
	<polygon fill="#FDDA65" points="310,1239.3574 347,1272.3574 338,1225.3574 	"/>
	<path fill="#46BAEB" d="M312.2332,324.8303L298,325.3574l3.291,13.1639C304.7937,333.7859,308.4386,329.222,312.2332,324.8303z"/>
	<polygon fill="#D01891" points="296,737.3574 299,769.3574 357,746.3574 	"/>
	<polygon fill="#0BA251" points="353,1095.3574 341.2307,1088.0818 302.751,1088.0818 306,1106.3574 	"/>
	<polygon fill="#0461C8" points="299,769.3574 309,832.3574 352,782.3574 	"/>
	<polygon fill="#07ACEA" points="314,1150.3574 298,1179.3574 355,1173.3574 	"/>
	<polygon fill="#07ACEA" points="346,249.3574 301,293.3574 355,274.3574 	"/>
	<polygon fill="#87E7E3" points="316,240.3574 301,293.3574 346,249.3574 	"/>
	<path fill="#D01891" d="M312.2332,324.8303c4.8217-5.5804,9.8809-10.8889,15.1902-15.9297L301,293.3574l-3,32L312.2332,324.8303z"
		/>
	<polygon fill="#9E58A2" points="307,1274.3574 347,1272.3574 310,1239.3574 	"/>
	<polygon fill="#0461C8" points="296,203.3574 316,240.3574 345,198.3574 	"/>
	<polygon fill="#0EB3A4" points="346,1138.3574 306,1106.3574 314,1150.3574 	"/>
	<path fill="#0BA251" d="M299.6289,652.6976L296,653.3574l10,35l11.5258-14.5767
		C311.1062,666.9136,305.1428,659.888,299.6289,652.6976z"/>
	<polygon fill="#0BA251" points="345,198.3574 306,159.3574 296,203.3574 	"/>
	<polygon fill="#B261BD" points="311,921.3574 344,904.3574 304,867.3574 	"/>
	<path fill="#87E7E3" d="M310.6519,922.9485c0.9661,0.4415,1.9302,0.8724,2.8949,1.3069L311,921.3574L310.6519,922.9485z"/>
	<polygon fill="#FCD23D" points="310,1239.3574 338,1225.3574 298,1179.3574 	"/>
	<path fill="#D01891" d="M297.0562,649.2955L296,653.3574l3.6289-0.6598C298.762,651.5671,297.9008,650.4343,297.0562,649.2955z"/>
	<polygon fill="#FDDA65" points="263,781.3574 260,813.3574 299,769.3574 	"/>
	<path fill="#87E7E3" d="M273.9583,384.7982L268,376.3574l-6,32l1.7737,0.8024
		C266.7356,401.0135,270.1298,392.8984,273.9583,384.7982z"/>
	<polygon fill="#B261BD" points="302.751,1088.0818 275.5408,1088.0818 306,1106.3574 	"/>
	<polygon fill="#FDCD19" points="254,103.3574 252,153.3574 306,159.3574 	"/>
	<polygon fill="#EC752E" points="260,813.3574 309,832.3574 299,769.3574 	"/>
	<path fill="#FDCD19" d="M283.4077,628.9496L270,642.3574l26,11l1.0562-4.0619
		C292.1306,642.6552,287.5779,635.8766,283.4077,628.9496z"/>
	<path fill="#DE4F9B" d="M253.5253,551.4231c-0.131-0.6594-0.2689-1.3154-0.3949-1.9771L253,551.3574L253.5253,551.4231z"/>
	<path fill="#3C4192" d="M270.9192,605.3271c-1.7295-3.7617-3.3586-7.5647-4.8878-11.4094L251,606.3574L270.9192,605.3271z"/>
	<path fill="#9E58A2" d="M279.0784,374.4661L268,376.3574l5.9583,8.4408C275.5869,381.3521,277.2915,377.9082,279.0784,374.4661z"/>
	<polygon fill="#DE4F9B" points="259,1192.3574 310,1239.3574 298,1179.3574 	"/>
	<polygon fill="#843895" points="256,1235.3574 310,1239.3574 259,1192.3574 	"/>
	<path fill="#0461C8" d="M304,867.3574l-36.8922,33.3787c3.5602,2.0524,7.1449,4.0734,10.7743,6.0367l0.738,0.3942
		c6.7686,3.5773,13.5073,6.973,20.2202,10.2199L311,921.3574L304,867.3574z"/>
	<polygon fill="#D01891" points="285.2687,1303.1641 310.2007,1303.1641 307,1274.3574 	"/>
	<polygon fill="#FDCD19" points="306,1106.3574 255,1150.3574 314,1150.3574 	"/>
	<polygon fill="#87E7E3" points="316,240.3574 251,247.3574 301,293.3574 	"/>
	<polygon fill="#D01891" points="296,203.3574 251,247.3574 316,240.3574 	"/>
	<polygon fill="#FCD23D" points="316,98.3574 254,103.3574 306,159.3574 	"/>
	<path fill="#EC752E" d="M316,98.3574L304.7668,71.077c-10.0371,4.7321-19.9879,9.8204-29.8433,15.2799L254,103.3574L316,98.3574z"
		/>
	<polygon fill="#46BAEB" points="261,730.3574 296,737.3574 306,688.3574 	"/>
	<polygon fill="#0461C8" points="253,1272.3574 258.7437,1303.1641 285.2687,1303.1641 307,1274.3574 	"/>
	<path fill="#0461C8" d="M251,606.3574l15.0314-12.4397c-5.4192-13.6252-9.5826-27.7781-12.5061-42.4946L253,551.3574L251,606.3574z
		"/>
	<path fill="#B261BD" d="M301.291,338.5214L298,325.3574l-33,10l25.2075,19.4785
		C293.7295,349.1802,297.425,343.7478,301.291,338.5214z"/>
	<polygon fill="#0BA251" points="314,1150.3574 255,1150.3574 298,1179.3574 	"/>
	<path fill="#0BA251" d="M283.6801,365.9094c2.108-3.7809,4.2841-7.4706,6.5275-11.0735L265,335.3574l3,41l11.0784-1.8914
		C280.5592,371.6132,282.0902,368.7611,283.6801,365.9094z"/>
	<polygon fill="#E4282E" points="256,1235.3574 307,1274.3574 310,1239.3574 	"/>
	<polygon fill="#46BAEB" points="301,293.3574 251,247.3574 247,280.3574 	"/>
	<path fill="#EC752E" d="M262,870.3574v27.3911c1.6943,1.0064,3.3975,2.0016,5.1078,2.9875L304,867.3574L262,870.3574z"/>
	<polygon fill="#DE4F9B" points="306,159.3574 252,190.3574 296,203.3574 	"/>
	<polygon fill="#FDDA65" points="253,1272.3574 307,1274.3574 256,1235.3574 	"/>
	<polygon fill="#FDCD19" points="262,870.3574 304,867.3574 309,832.3574 	"/>
	<path fill="#0BA251" d="M298.8403,917.387c3.9469,1.909,7.8849,3.767,11.8115,5.5616L311,921.3574L298.8403,917.387z"/>
	<polygon fill="#FDCD19" points="260,813.3574 262,870.3574 309,832.3574 	"/>
	<path fill="#85DC34" d="M270.9192,605.3271L251,606.3574l19,36l13.4077-13.4078
		C278.7786,621.2601,274.624,613.3857,270.9192,605.3271z"/>
	<polygon fill="#85DC34" points="247,693.3574 261,730.3574 306,688.3574 	"/>
	<path fill="#DE4F9B" d="M249.8682,468.2672c0.4323-3.9014,0.9574-7.7872,1.5718-11.6595L248,456.3574L249.8682,468.2672z"/>
	<path fill="#0BA251" d="M251.4401,456.6077c0.1173-0.739,0.2325-1.4783,0.3564-2.2163L248,456.3574L251.4401,456.6077z"/>
	<polygon fill="#0EB3A4" points="306,1106.3574 275.5408,1088.0818 270.3293,1088.0818 255,1150.3574 	"/>
	<polygon fill="#46BAEB" points="306,159.3574 252,153.3574 252,190.3574 	"/>
	<polygon fill="#3C4192" points="296,653.3574 247,693.3574 306,688.3574 	"/>
	<polygon fill="#3C4192" points="298,325.3574 301,293.3574 265,335.3574 	"/>
	<path fill="#87E7E3" d="M274.9236,86.3569c-0.2911,0.1614-0.5837,0.3164-0.8748,0.4783
		c-6.6853,3.7202-13.2411,7.5876-19.6765,11.5897L254,103.3574L274.9236,86.3569z"/>
	<path fill="#85DC34" d="M251.7965,454.3914c2.5607-15.2506,6.5458-30.2937,11.9772-45.2316L262,408.3574l-14,48L251.7965,454.3914z
		"/>
	<polygon fill="#0461C8" points="270,642.3574 247,693.3574 296,653.3574 	"/>
	<polygon fill="#FDDA65" points="261,730.3574 263,781.3574 296,737.3574 	"/>
	<polygon fill="#3C4192" points="296,737.3574 263,781.3574 299,769.3574 	"/>
	<polygon fill="#3C4192" points="301,293.3574 247,280.3574 265,335.3574 	"/>
	<polygon fill="#843895" points="252,190.3574 251,247.3574 296,203.3574 	"/>
	<polygon fill="#9E58A2" points="298,1179.3574 255,1150.3574 259,1192.3574 	"/>
	<polygon fill="#3C4192" points="253,551.3574 225,593.3574 251,606.3574 	"/>
	<polygon fill="#3C4192" points="217,835.3574 262,870.3574 260,813.3574 	"/>
	<polygon fill="#46BAEB" points="221,861.3574 262,870.3574 217,835.3574 	"/>
	<polygon fill="#9E58A2" points="219,738.3574 263,781.3574 261,730.3574 	"/>
	<polygon fill="#3C4192" points="230.5477,1303.1641 258.7437,1303.1641 253,1272.3574 	"/>
	<polygon fill="#E4282E" points="247,280.3574 224,320.3574 265,335.3574 	"/>
	<polygon fill="#0EB3A4" points="265,335.3574 212,378.3574 268,376.3574 	"/>
	<polygon fill="#B261BD" points="224,648.3574 270,642.3574 251,606.3574 	"/>
	<polygon fill="#0BA251" points="224,648.3574 247,693.3574 270,642.3574 	"/>
	<polygon fill="#DE4F9B" points="255,1150.3574 270.3293,1088.0818 262.9701,1088.0818 215,1104.3574 	"/>
	<polygon fill="#0BA251" points="262.9701,1088.0818 226.5285,1088.0818 215,1104.3574 	"/>
	<path fill="#87E7E3" d="M253.1304,549.446c-2.4188-12.7004-3.9285-25.816-4.5233-39.3779L226,518.3574l27,33L253.1304,549.446z"/>
	<path fill="#0BA251" d="M254.3723,98.4249c-1.1182,0.6954-2.2271,1.4011-3.3378,2.105L254,103.3574L254.3723,98.4249z"/>
	<polygon fill="#87E7E3" points="268,376.3574 212,378.3574 262,408.3574 	"/>
	<polygon fill="#FDCD19" points="251,247.3574 215,196.3574 216,242.3574 	"/>
	<polygon fill="#D01891" points="252,190.3574 215,196.3574 251,247.3574 	"/>
	<polygon fill="#D01891" points="262,408.3574 215,415.3574 248,456.3574 	"/>
	<polygon fill="#0BA251" points="219,738.3574 221,787.3574 263,781.3574 	"/>
	<polygon fill="#DE4F9B" points="224,320.3574 212,378.3574 265,335.3574 	"/>
	<polygon fill="#FDDA65" points="213,1267.3574 211.3216,1303.1641 230.5477,1303.1641 253,1272.3574 	"/>
	<path fill="#FCD23D" d="M254,103.3574l-11.8931,2.9733c-7.0944,4.7294-14.0351,9.6285-20.8048,14.7131L252,153.3574L254,103.3574z"
		/>
	<polygon fill="#0BA251" points="259,1192.3574 255,1150.3574 203,1175.3574 	"/>
	<polygon fill="#0461C8" points="220,1241.3574 256,1235.3574 259,1192.3574 	"/>
	<path fill="#D01891" d="M219.0591,868.7681c8.4288,6.4386,17.1019,12.5785,26.0117,18.4213L221,861.3574L219.0591,868.7681z"/>
	<path fill="#3C4192" d="M221,861.3574l24.0707,25.832c5.5488,3.6387,11.1961,7.1536,16.9293,10.5591v-27.3911L221,861.3574z"/>
	<polygon fill="#0461C8" points="262,408.3574 212,378.3574 215,415.3574 	"/>
	<polygon fill="#FCD23D" points="263,781.3574 221,787.3574 260,813.3574 	"/>
	<path fill="#E4282E" d="M248.3132,496.5587c0-9.5339,0.5206-18.9561,1.555-28.2915L248,456.3574l-22,62l22.6071-8.2893
		C248.4116,505.6129,248.3132,501.1104,248.3132,496.5587z"/>
	<polygon fill="#FDCD19" points="255,1150.3574 215,1104.3574 202,1130.3574 	"/>
	<polygon fill="#85DC34" points="220,1241.3574 253,1272.3574 256,1235.3574 	"/>
	<polygon fill="#FDCD19" points="247,693.3574 219,738.3574 261,730.3574 	"/>
	<polygon fill="#0EB3A4" points="205,459.3574 226,518.3574 248,456.3574 	"/>
	<polygon fill="#07ACEA" points="203,1175.3574 220,1241.3574 259,1192.3574 	"/>
	<polygon fill="#E4282E" points="226.5285,1088.0818 214.6678,1088.0818 215,1104.3574 	"/>
	<polygon fill="#9E58A2" points="221,787.3574 217,835.3574 260,813.3574 	"/>
	<polygon fill="#9E58A2" points="215,688.3574 247,693.3574 224,648.3574 	"/>
	<path fill="#0461C8" d="M252,153.3574l-30.6979-32.3136c-3.6577,2.7472-7.2599,5.5544-10.822,8.4045L207,145.3574L252,153.3574z"/>
	<polygon fill="#0461C8" points="252,153.3574 215,196.3574 252,190.3574 	"/>
	<polygon fill="#87E7E3" points="212,549.3574 225,593.3574 253,551.3574 	"/>
	<path fill="#87E7E3" d="M251.0345,100.5299c-3.0032,1.9032-5.98,3.8358-8.9276,5.8008L254,103.3574L251.0345,100.5299z"/>
	<polygon fill="#3C4192" points="207,145.3574 215,196.3574 252,153.3574 	"/>
	<polygon fill="#0461C8" points="213,1267.3574 253,1272.3574 220,1241.3574 	"/>
	<polygon fill="#46BAEB" points="225,593.3574 224,648.3574 251,606.3574 	"/>
	<polygon fill="#FDCD19" points="251,247.3574 216,242.3574 247,280.3574 	"/>
	<polygon fill="#46BAEB" points="226,518.3574 212,549.3574 253,551.3574 	"/>
	<polygon fill="#85DC34" points="203,1175.3574 255,1150.3574 202,1130.3574 	"/>
	<polygon fill="#0EB3A4" points="215,688.3574 219,738.3574 247,693.3574 	"/>
	<polygon fill="#FCD23D" points="203,291.3574 224,320.3574 247,280.3574 	"/>
	<polygon fill="#FDDA65" points="215,415.3574 205,459.3574 248,456.3574 	"/>
	<polygon fill="#3C4192" points="247,280.3574 216,242.3574 203,291.3574 	"/>
	<polygon fill="#FCD23D" points="169,1283.3574 185.9182,1303.1641 211.3216,1303.1641 213,1267.3574 	"/>
	<path fill="#DE4F9B" d="M207,145.3574l-23.1431,7.1824c-1.3604,1.2783-2.72,2.5575-4.064,3.8529L215,196.3574L207,145.3574z"/>
	<polygon fill="#0EB3A4" points="216,242.3574 215,196.3574 177,236.3574 	"/>
	<polygon fill="#85DC34" points="173,692.3574 219,738.3574 215,688.3574 	"/>
	<polygon fill="#EC752E" points="164,723.3574 219,738.3574 173,692.3574 	"/>
	<polygon fill="#85DC34" points="179,1228.3574 220,1241.3574 203,1175.3574 	"/>
	<path fill="#9E58A2" d="M213.025,864.0762c1.9973,1.5812,4.0088,3.1449,6.0341,4.692L221,861.3574L213.025,864.0762z"/>
	<path fill="#3C4192" d="M221,787.3574l-47.508,41.3495c1.9706,1.9877,3.9614,3.9521,5.9664,5.8996L217,835.3574L221,787.3574z"/>
	<polygon fill="#0461C8" points="171,768.3574 221,787.3574 219,738.3574 	"/>
	<polygon fill="#E4282E" points="173,639.3574 215,688.3574 224,648.3574 	"/>
	<polygon fill="#9E58A2" points="224,320.3574 173,323.3574 212,378.3574 	"/>
	<polygon fill="#D01891" points="212,549.3574 174,560.3574 225,593.3574 	"/>
	<polygon fill="#46BAEB" points="225,593.3574 173,639.3574 224,648.3574 	"/>
	<polygon fill="#46BAEB" points="158,596.3574 173,639.3574 225,593.3574 	"/>
	<polygon fill="#07ACEA" points="226,518.3574 168,521.3574 212,549.3574 	"/>
	<polygon fill="#FDDA65" points="205,459.3574 168,521.3574 226,518.3574 	"/>
	<polygon fill="#FDDA65" points="214.6678,1088.0818 171.8698,1088.0818 215,1104.3574 	"/>
	<polygon fill="#843895" points="174,560.3574 158,596.3574 225,593.3574 	"/>
	<polygon fill="#87E7E3" points="173,639.3574 173,692.3574 215,688.3574 	"/>
	<polygon fill="#0BA251" points="215,415.3574 181,417.3574 205,459.3574 	"/>
	<path fill="#46BAEB" d="M171,768.3574l-3.2974,54.4069c1.912,2.0015,3.8437,3.9802,5.7894,5.9427L221,787.3574L171,768.3574z"/>
	<polygon fill="#B261BD" points="203,291.3574 173,323.3574 224,320.3574 	"/>
	<polygon fill="#9E58A2" points="216,242.3574 170,281.3574 203,291.3574 	"/>
	<polygon fill="#0EB3A4" points="177,236.3574 170,281.3574 216,242.3574 	"/>
	<path fill="#46BAEB" d="M217,835.3574l-17.2949,17.7272c4.3703,3.7476,8.8055,7.4175,13.3199,10.9915l7.975-2.7188L217,835.3574z"
		/>
	<polygon fill="#D01891" points="176,1178.3574 179,1228.3574 203,1175.3574 	"/>
	<polygon fill="#85DC34" points="173,323.3574 166,381.3574 212,378.3574 	"/>
	<polygon fill="#0EB3A4" points="212,378.3574 181,417.3574 215,415.3574 	"/>
	<path fill="#EC752E" d="M179.4584,834.6066c6.5649,6.3765,13.316,12.5348,20.2468,18.4781L217,835.3574L179.4584,834.6066z"/>
	<polygon fill="#FDCD19" points="179,1228.3574 213,1267.3574 220,1241.3574 	"/>
	<polygon fill="#85DC34" points="164.0483,1303.1641 185.9182,1303.1641 169,1283.3574 	"/>
	<path fill="#0EB3A4" d="M215,196.3574l-35.207-39.9647c-1.5012,1.447-2.9853,2.9117-4.466,4.38L163,190.3574L215,196.3574z"/>
	<polygon fill="#0EB3A4" points="164,723.3574 171,768.3574 219,738.3574 	"/>
	<polygon fill="#87E7E3" points="159,458.3574 168,521.3574 205,459.3574 	"/>
	<polygon fill="#843895" points="215,196.3574 163,190.3574 177,236.3574 	"/>
	<polygon fill="#9E58A2" points="212,378.3574 166,381.3574 181,417.3574 	"/>
	<path fill="#E4282E" d="M210.4801,129.4484c-2.9584,2.3671-5.8864,4.7667-8.7786,7.2045L207,145.3574L210.4801,129.4484z"/>
	<polygon fill="#B261BD" points="202,1130.3574 174,1132.3574 203,1175.3574 	"/>
	<polygon fill="#D01891" points="215,1104.3574 174,1132.3574 202,1130.3574 	"/>
	<polygon fill="#FDDA65" points="215,1104.3574 171.8698,1088.0818 162.9311,1088.0818 174,1132.3574 	"/>
	<polygon fill="#FDDA65" points="168,521.3574 174,560.3574 212,549.3574 	"/>
	<polygon fill="#B261BD" points="169,1283.3574 213,1267.3574 179,1228.3574 	"/>
	<polygon fill="#843895" points="203,1175.3574 174,1132.3574 176,1178.3574 	"/>
	<path fill="#3C4192" d="M201.7015,136.6528c-6.0969,5.1389-12.0443,10.4363-17.8446,15.887L207,145.3574L201.7015,136.6528z"/>
	<polygon fill="#85DC34" points="181,417.3574 159,458.3574 205,459.3574 	"/>
	<polygon fill="#3C4192" points="170,281.3574 173,323.3574 203,291.3574 	"/>
	<polygon fill="#DE4F9B" points="159,458.3574 133,498.3574 168,521.3574 	"/>
	<polygon fill="#07ACEA" points="131,1275.3574 169,1283.3574 126,1239.3574 	"/>
	<path fill="#D01891" d="M144.0207,795.8988c7.5832,9.3073,15.4721,18.2715,23.6819,26.8655L171,768.3574L144.0207,795.8988z"/>
	<polygon fill="#07ACEA" points="123,645.3574 173,692.3574 173,639.3574 	"/>
	<polygon fill="#B261BD" points="173,323.3574 124,330.3574 166,381.3574 	"/>
	<polygon fill="#E4282E" points="125,1182.3574 174,1132.3574 122,1130.3574 	"/>
	<polygon fill="#FCD23D" points="176,1178.3574 174,1132.3574 125,1182.3574 	"/>
	<polygon fill="#B261BD" points="163,190.3574 120,232.3574 177,236.3574 	"/>
	<polygon fill="#B261BD" points="177,236.3574 120,275.3574 170,281.3574 	"/>
	<polygon fill="#FCD23D" points="120,232.3574 120,275.3574 177,236.3574 	"/>
	<polygon fill="#0461C8" points="126,1239.3574 169,1283.3574 179,1228.3574 	"/>
	<polygon fill="#E4282E" points="125,1182.3574 179,1228.3574 176,1178.3574 	"/>
	<polygon fill="#07ACEA" points="126,1239.3574 179,1228.3574 125,1182.3574 	"/>
	<polygon fill="#87E7E3" points="181,417.3574 115,429.3574 159,458.3574 	"/>
	<polygon fill="#843895" points="166,381.3574 124,385.3574 181,417.3574 	"/>
	<polygon fill="#843895" points="124,385.3574 115,429.3574 181,417.3574 	"/>
	<polygon fill="#3C4192" points="123,645.3574 113,682.3574 173,692.3574 	"/>
	<polygon fill="#FCD23D" points="174,1132.3574 162.9311,1088.0818 149.1338,1088.0818 124,1095.3574 	"/>
	<polygon fill="#EC752E" points="174,1132.3574 124,1095.3574 122,1130.3574 	"/>
	<path fill="#0461C8" d="M175.327,160.7727c-6.8327,6.7751-13.443,13.7795-19.8355,21.0035L163,190.3574L175.327,160.7727z"/>
	<polygon fill="#843895" points="121,738.3574 171,768.3574 164,723.3574 	"/>
	<path fill="#FDCD19" d="M123.8296,769.231c6.4573,9.1904,13.192,18.0774,20.1911,26.6678L171,768.3574L123.8296,769.231z"/>
	<polygon fill="#0BA251" points="170,281.3574 124,330.3574 173,323.3574 	"/>
	<polygon fill="#3C4192" points="168,521.3574 121,545.3574 174,560.3574 	"/>
	<polygon fill="#85DC34" points="120,275.3574 124,330.3574 170,281.3574 	"/>
	<polygon fill="#843895" points="158,596.3574 123,645.3574 173,639.3574 	"/>
	<polygon fill="#9E58A2" points="166,381.3574 124,330.3574 124,385.3574 	"/>
	<polygon fill="#3C4192" points="174,560.3574 127,593.3574 158,596.3574 	"/>
	<polygon fill="#9E58A2" points="148.6432,1303.1641 164.0483,1303.1641 169,1283.3574 	"/>
	<polygon fill="#0BA251" points="121,545.3574 127,593.3574 174,560.3574 	"/>
	<polygon fill="#D01891" points="159,458.3574 115,429.3574 131,459.3574 	"/>
	<path fill="#FDDA65" d="M121,738.3574l-2.907,22.5292c1.8869,2.809,3.8005,5.5889,5.7366,8.3444L171,768.3574L121,738.3574z"/>
	<polygon fill="#46BAEB" points="173,692.3574 113,682.3574 164,723.3574 	"/>
	<polygon fill="#9E58A2" points="131,1275.3574 131.632,1303.1641 148.6432,1303.1641 169,1283.3574 	"/>
	<polygon fill="#3C4192" points="127,593.3574 123,645.3574 158,596.3574 	"/>
	<path fill="#EC752E" d="M163,190.3574l-14.069-1.0049c-10.204,12.067-19.8154,24.7264-28.8192,37.9717L120,232.3574L163,190.3574z"
		/>
	<polygon fill="#0BA251" points="131,459.3574 133,498.3574 159,458.3574 	"/>
	<path fill="#85DC34" d="M155.4915,181.7762c-2.2122,2.4999-4.4014,5.0229-6.5604,7.5763L163,190.3574L155.4915,181.7762z"/>
	<polygon fill="#0EB3A4" points="133,498.3574 121,545.3574 168,521.3574 	"/>
	<polygon fill="#07ACEA" points="149.1338,1088.0818 122.4308,1088.0818 124,1095.3574 	"/>
	<polygon fill="#EC752E" points="113,682.3574 121,738.3574 164,723.3574 	"/>
	<path fill="#3C4192" d="M120,275.3574l-33.738,10.4427c-1.1434,2.3365-2.2672,4.6775-3.3712,7.0228L124,330.3574L120,275.3574z"/>
	<path fill="#0461C8" d="M124,330.3574L82.8908,292.823c-1.6742,3.5565-3.3074,7.1221-4.8908,10.6981v16.8363L124,330.3574z"/>
	<polygon fill="#EC752E" points="124,330.3574 82,369.3574 124,385.3574 	"/>
	<polygon fill="#E4282E" points="122,1130.3574 91,1142.3574 125,1182.3574 	"/>
	<polygon fill="#3C4192" points="77,1187.3574 81,1232.3574 125,1182.3574 	"/>
	<polygon fill="#9E58A2" points="125,1182.3574 81,1232.3574 126,1239.3574 	"/>
	<polygon fill="#FDCD19" points="127,593.3574 83,611.3574 123,645.3574 	"/>
	<polygon fill="#0EB3A4" points="81,1278.3574 111.8571,1303.1641 131.632,1303.1641 131,1275.3574 	"/>
	<polygon fill="#E4282E" points="85.2125,1303.1641 111.8571,1303.1641 81,1278.3574 	"/>
	<polygon fill="#87E7E3" points="133,498.3574 80,501.3574 121,545.3574 	"/>
	<polygon fill="#FDCD19" points="90,466.3574 133,498.3574 131,459.3574 	"/>
	<polygon fill="#3C4192" points="81,1278.3574 131,1275.3574 126,1239.3574 	"/>
	<polygon fill="#0BA251" points="90,466.3574 80,501.3574 133,498.3574 	"/>
	<path fill="#87E7E3" d="M113,682.3574l-31.8584,12.7433c3.5415,7.6344,7.2904,15.2181,11.2534,22.7474L121,738.3574L113,682.3574z"
		/>
	<polygon fill="#DE4F9B" points="121,545.3574 67,547.3574 127,593.3574 	"/>
	<polygon fill="#9E58A2" points="115,429.3574 90,466.3574 131,459.3574 	"/>
	<path fill="#0EB3A4" d="M92.395,717.8481c2.7883,5.2974,5.6691,10.5712,8.6655,15.8147l0.4047,0.7004
		c0.4944,0.8466,1.0014,1.6797,1.4998,2.522L121,738.3574L92.395,717.8481z"/>
	<polygon fill="#87E7E3" points="124,385.3574 81,421.3574 115,429.3574 	"/>
	<polygon fill="#B261BD" points="67,547.3574 83,611.3574 127,593.3574 	"/>
	<path fill="#FDCD19" d="M120.1119,227.3242c-0.6942,1.021-1.3805,2.0496-2.0674,3.0776L120,232.3574L120.1119,227.3242z"/>
	<polygon fill="#3C4192" points="124,1095.3574 72,1100.3574 122,1130.3574 	"/>
	<polygon fill="#0EB3A4" points="124,1095.3574 122.4308,1088.0818 80.9875,1088.0818 72,1100.3574 	"/>
	<polygon fill="#843895" points="81,1232.3574 81,1278.3574 126,1239.3574 	"/>
	<path fill="#46BAEB" d="M120,232.3574l-3.1334-0.1808c-5.6147,8.4866-10.9852,17.2069-16.1091,26.1586L120,275.3574V232.3574z"/>
	<path fill="#0461C8" d="M118.0444,230.4019c-0.3942,0.5901-0.7859,1.1825-1.1778,1.7748L120,232.3574L118.0444,230.4019z"/>
	<polygon fill="#9E58A2" points="72,1100.3574 91,1142.3574 122,1130.3574 	"/>
	<polygon fill="#FDDA65" points="78,320.3574 82,369.3574 124,330.3574 	"/>
	<polygon fill="#843895" points="91,1142.3574 77,1187.3574 125,1182.3574 	"/>
	<polygon fill="#843895" points="80.9875,1088.0818 72.6138,1088.0818 72,1100.3574 	"/>
	<path fill="#3C4192" d="M100.7576,258.3352c-0.7566,1.3218-1.5201,2.6372-2.2659,3.9691l-0.2537,0.4591
		c-4.2112,7.6287-8.195,15.3103-11.976,23.0367L120,275.3574L100.7576,258.3352z"/>
	<polygon fill="#E4282E" points="69,639.3574 113,682.3574 123,645.3574 	"/>
	<polygon fill="#DE4F9B" points="82,369.3574 81,421.3574 124,385.3574 	"/>
	<polygon fill="#843895" points="80,501.3574 67,547.3574 121,545.3574 	"/>
	<polygon fill="#FDCD19" points="83,611.3574 69,639.3574 123,645.3574 	"/>
	<path fill="#07ACEA" d="M102.965,736.8852c4.8537,8.2023,9.8929,16.2079,15.1281,24.0014L121,738.3574L102.965,736.8852z"/>
	<polygon fill="#85DC34" points="115,429.3574 81,421.3574 90,466.3574 	"/>
	<path fill="#843895" d="M69,639.3574l-0.4288,26.1547c3.843,9.9443,8.0334,19.8086,12.5704,29.5887L113,682.3574L69,639.3574z"/>
	<polygon fill="#0461C8" points="72.6138,1088.0818 61.1202,1088.0818 61.1202,1097.6375 72,1100.3574 	"/>
	<polygon fill="#3C4192" points="81,1232.3574 61.1202,1248.6691 61.1202,1271.2211 81,1278.3574 	"/>
	<path fill="#9E58A2" d="M78,320.3574l-7.553,1.1749c-3.8055,9.5912-7.2889,19.2477-10.45,28.9653L82,369.3574L78,320.3574z"/>
	<path fill="#9E58A2" d="M82,369.3574l-35.9383,34.2269c-0.4779,2.3783-0.9366,4.7598-1.3772,7.1442L81,421.3574L82,369.3574z"/>
	<path fill="#0BA251" d="M67,547.3574l-23.8803,24.991c1.541,9.3665,3.3782,18.6775,5.4897,27.9341L83,611.3574L67,547.3574z"/>
	<polygon fill="#B261BD" points="61.1202,1292.0004 61.1202,1303.1641 85.2125,1303.1641 81,1278.3574 	"/>
	<polygon fill="#3C4192" points="81,421.3574 44,470.3574 90,466.3574 	"/>
	<polygon fill="#E4282E" points="44,470.3574 80,501.3574 90,466.3574 	"/>
	<polygon fill="#87E7E3" points="72,1100.3574 61.1202,1110.6328 61.1202,1138.0112 91,1142.3574 	"/>
	<polygon fill="#46BAEB" points="91,1142.3574 61.1202,1163.618 61.1202,1184.0143 77,1187.3574 	"/>
	<polygon fill="#07ACEA" points="61.1202,1138.0112 61.1202,1163.618 91,1142.3574 	"/>
	<polygon fill="#843895" points="77,1187.3574 61.1202,1202.1545 61.1202,1230.7007 81,1232.3574 	"/>
	<path fill="#843895" d="M59.9969,350.4977c-2.2349,6.8705-4.3113,13.7706-6.223,20.7006L82,369.3574L59.9969,350.4977z"/>
	<path fill="#3C4192" d="M53.7739,371.1982c-2.9595,10.7278-5.5295,21.5251-7.7122,32.3861L82,369.3574L53.7739,371.1982z"/>
	<path fill="#46BAEB" d="M59.496,639.9334c2.7682,8.5831,5.8019,17.1084,9.0752,25.5787L69,639.3574L59.496,639.9334z"/>
	<path fill="#EC752E" d="M80,501.3574H36.9455c0.034,2.9565,0.0904,5.9094,0.1789,8.8574L67,547.3574L80,501.3574z"/>
	<path fill="#9E58A2" d="M81,421.3574l-36.3155-10.6289c-1.2383,6.7009-2.3289,13.4255-3.2718,20.1726L44,470.3574L81,421.3574z"/>
	<path fill="#87E7E3" d="M39.8012,548.2074c0.8992,8.0841,2.0009,16.1326,3.3185,24.141L67,547.3574L39.8012,548.2074z"/>
	<polygon fill="#FDCD19" points="61.1202,1271.2211 61.1202,1292.0004 81,1278.3574 	"/>
	<polygon fill="#843895" points="61.1202,1184.0143 61.1202,1202.1545 77,1187.3574 	"/>
	<path fill="#85DC34" d="M83,611.3574l-26.9933,17.2298c1.1184,3.7916,2.2733,7.5755,3.4894,11.3462l9.504-0.576L83,611.3574z"/>
	<path fill="#D01891" d="M48.6094,600.2825c2.1662,9.4958,4.6326,18.9318,7.3972,28.3047L83,611.3574L48.6094,600.2825z"/>
	<path fill="#B261BD" d="M78,303.5211c-2.6464,5.9768-5.1606,11.9816-7.553,18.0112L78,320.3574V303.5211z"/>
	<polygon fill="#D01891" points="61.1202,1230.7007 61.1202,1248.6691 81,1232.3574 	"/>
	<path fill="#DE4F9B" d="M44,470.3574l-6.9807,15.4572c-0.0704,3.3329-0.1187,6.6686-0.1187,10.0101
		c0,1.8466,0.0237,3.6895,0.0449,5.5327H80L44,470.3574z"/>
	<path fill="#843895" d="M37.1244,510.2148c0.3827,12.748,1.2778,25.4144,2.6768,37.9926L67,547.3574L37.1244,510.2148z"/>
	<polygon fill="#46BAEB" points="61.1202,1097.6375 61.1202,1110.6328 72,1100.3574 	"/>
	<path fill="#0EB3A4" d="M37.6239,469.9324c-0.29,5.2825-0.4926,10.5767-0.6046,15.8822L44,470.3574L37.6239,469.9324z"/>
	<path fill="#D01891" d="M41.4127,430.9011c-1.4733,10.542-2.5851,21.1383-3.3351,31.7842L44,470.3574L41.4127,430.9011z"/>
	<path fill="#85DC34" d="M38.0776,462.6853c-0.17,2.4131-0.321,4.8289-0.4537,7.2471L44,470.3574L38.0776,462.6853z"/>
</g>
</svg>
