<svg width="1673" height="1540" viewBox="0 0 1673 1540" fill="none" xmlns="http://www.w3.org/2000/svg">
<style>
    #Market_val_2018 {
        animation: rotate 5s linear infinite;
        -moz-animation: rotate 5s linear infinite;
        transform-origin: center;
        transform-box: fill-box;
    }

    #Avatar {
        animation: rotate 7s linear infinite;
        -moz-animation: rotate 7s linear infinite;
        transform-origin: center;
        transform-box: fill-box;
    }

    @keyframes rotate {
    from {
        transform: rotateZ(0deg);
    }
    to {
        transform: rotateZ(360deg);
    }
</style>
<g id="Comparison">
<g id="Denmark_GDP_2018">
<circle id="bcg" cx="770" cy="770" r="770" fill="#ffc609"/>
<path id="$" d="M749.3 1243C741.453 1243 735.39 1240.5 731.11 1235.51C726.83 1231.23 724.69 1225.52 724.69 1218.39V1143.49C672.617 1139.21 628.747 1127.44 593.08 1108.18C557.413 1088.21 530.307 1064.31 511.76 1036.49C493.213 1008.67 483.227 979.067 481.8 947.68C481.8 941.973 483.94 936.98 488.22 932.7C493.213 927.707 498.92 925.21 505.34 925.21H559.91C568.47 925.21 574.89 927.35 579.17 931.63C583.45 935.91 586.303 940.903 587.73 946.61C592.01 963.73 600.927 980.85 614.48 997.97C628.033 1014.38 647.293 1028.29 672.26 1039.7C697.94 1050.4 730.753 1055.75 770.7 1055.75C832.047 1055.75 876.987 1045.05 905.52 1023.65C934.767 1001.54 949.39 972.29 949.39 935.91C949.39 910.943 941.543 890.97 925.85 875.99C910.87 860.297 887.687 846.387 856.3 834.26C824.913 822.133 784.253 808.937 734.32 794.67C682.247 779.69 639.09 763.283 604.85 745.45C570.61 727.617 544.93 705.503 527.81 679.11C511.403 652.717 503.2 619.19 503.2 578.53C503.2 526.457 522.46 481.873 560.98 444.78C599.5 406.973 654.07 384.86 724.69 378.44V304.61C724.69 297.477 726.83 291.77 731.11 287.49C735.39 282.497 741.453 280 749.3 280H789.96C797.093 280 802.8 282.497 807.08 287.49C812.073 291.77 814.57 297.477 814.57 304.61V379.51C862.363 385.217 902.31 398.413 934.41 419.1C966.51 439.787 990.763 463.683 1007.17 490.79C1023.58 517.897 1032.14 544.29 1032.85 569.97C1032.85 574.963 1031.07 579.957 1027.5 584.95C1023.93 589.23 1018.23 591.37 1010.38 591.37H953.67C948.677 591.37 943.327 589.943 937.62 587.09C932.627 584.237 928.703 578.887 925.85 571.04C921.57 541.793 905.163 517.183 876.63 497.21C848.097 477.237 811.003 467.25 765.35 467.25C718.983 467.25 681.177 476.167 651.93 494C623.397 511.833 609.13 539.653 609.13 577.46C609.13 601.713 615.907 622.043 629.46 638.45C643.013 654.143 664.413 668.053 693.66 680.18C722.907 692.307 761.07 705.147 808.15 718.7C865.217 734.393 911.94 751.157 948.32 768.99C984.7 786.11 1011.45 807.867 1028.57 834.26C1046.4 859.94 1055.32 893.11 1055.32 933.77C1055.32 974.43 1045.33 1009.74 1025.36 1039.7C1006.1 1069.66 978.28 1093.56 941.9 1111.39C906.233 1129.22 863.79 1140.28 814.57 1144.56V1218.39C814.57 1225.52 812.073 1231.23 807.08 1235.51C802.8 1240.5 797.093 1243 789.96 1243H749.3Z" fill="white"/>
</g>
<g id="Market_val_2018">
<circle id="bcg_2" cx="1198" cy="557" r="475" fill="#38A6A5"/>
<path id="$_2" d="M1185.14 851.6C1180.26 851.6 1176.48 850.046 1173.82 846.938C1171.15 844.274 1169.82 840.722 1169.82 836.282V789.662C1137.41 786.998 1110.1 779.672 1087.9 767.684C1065.7 755.252 1048.83 740.378 1037.29 723.062C1025.74 705.746 1019.53 687.32 1018.64 667.784C1018.64 664.232 1019.97 661.124 1022.64 658.46C1025.74 655.352 1029.3 653.798 1033.29 653.798H1067.26C1072.59 653.798 1076.58 655.13 1079.25 657.794C1081.91 660.458 1083.69 663.566 1084.57 667.118C1087.24 677.774 1092.79 688.43 1101.22 699.086C1109.66 709.298 1121.65 717.956 1137.19 725.06C1153.17 731.72 1173.6 735.05 1198.46 735.05C1236.64 735.05 1264.62 728.39 1282.38 715.07C1300.58 701.306 1309.68 683.102 1309.68 660.458C1309.68 644.918 1304.8 632.486 1295.03 623.162C1285.71 613.394 1271.28 604.736 1251.74 597.188C1232.2 589.64 1206.9 581.426 1175.82 572.546C1143.4 563.222 1116.54 553.01 1095.23 541.91C1073.92 530.81 1057.93 517.046 1047.28 500.618C1037.07 484.19 1031.96 463.322 1031.96 438.014C1031.96 405.602 1043.95 377.852 1067.92 354.764C1091.9 331.232 1125.87 317.468 1169.82 313.472V267.518C1169.82 263.078 1171.15 259.526 1173.82 256.862C1176.48 253.754 1180.26 252.2 1185.14 252.2H1210.45C1214.89 252.2 1218.44 253.754 1221.1 256.862C1224.21 259.526 1225.77 263.078 1225.77 267.518V314.138C1255.51 317.69 1280.38 325.904 1300.36 338.78C1320.34 351.656 1335.43 366.53 1345.65 383.402C1355.86 400.274 1361.19 416.702 1361.63 432.686C1361.63 435.794 1360.52 438.902 1358.3 442.01C1356.08 444.674 1352.53 446.006 1347.64 446.006H1312.35C1309.24 446.006 1305.91 445.118 1302.36 443.342C1299.25 441.566 1296.81 438.236 1295.03 433.352C1292.37 415.148 1282.15 399.83 1264.39 387.398C1246.63 374.966 1223.55 368.75 1195.13 368.75C1166.27 368.75 1142.74 374.3 1124.53 385.4C1106.77 396.5 1097.89 413.816 1097.89 437.348C1097.89 452.444 1102.11 465.098 1110.55 475.31C1118.98 485.078 1132.3 493.736 1150.51 501.284C1168.71 508.832 1192.47 516.824 1221.77 525.26C1257.29 535.028 1286.37 545.462 1309.02 556.562C1331.66 567.218 1348.31 580.76 1358.97 597.188C1370.07 613.172 1375.62 633.818 1375.62 659.126C1375.62 684.434 1369.4 706.412 1356.97 725.06C1344.98 743.708 1327.66 758.582 1305.02 769.682C1282.82 780.782 1256.4 787.664 1225.77 790.328V836.282C1225.77 840.722 1224.21 844.274 1221.1 846.938C1218.44 850.046 1214.89 851.6 1210.45 851.6H1185.14Z" fill="white"/>
</g>
<g id="Box_office_2019">
<circle id="bcg_3" cx="633" cy="405" r="265" fill="#0F8554"/>
<path id="$_3" d="M626.3 569C623.587 569 621.49 568.137 620.01 566.41C618.53 564.93 617.79 562.957 617.79 560.49V534.59C599.783 533.11 584.613 529.04 572.28 522.38C559.947 515.473 550.573 507.21 544.16 497.59C537.747 487.97 534.293 477.733 533.8 466.88C533.8 464.907 534.54 463.18 536.02 461.7C537.747 459.973 539.72 459.11 541.94 459.11H560.81C563.77 459.11 565.99 459.85 567.47 461.33C568.95 462.81 569.937 464.537 570.43 466.51C571.91 472.43 574.993 478.35 579.68 484.27C584.367 489.943 591.027 494.753 599.66 498.7C608.54 502.4 619.887 504.25 633.7 504.25C654.913 504.25 670.453 500.55 680.32 493.15C690.433 485.503 695.49 475.39 695.49 462.81C695.49 454.177 692.777 447.27 687.35 442.09C682.17 436.663 674.153 431.853 663.3 427.66C652.447 423.467 638.387 418.903 621.12 413.97C603.113 408.79 588.19 403.117 576.35 396.95C564.51 390.783 555.63 383.137 549.71 374.01C544.037 364.883 541.2 353.29 541.2 339.23C541.2 321.223 547.86 305.807 561.18 292.98C574.5 279.907 593.37 272.26 617.79 270.04V244.51C617.79 242.043 618.53 240.07 620.01 238.59C621.49 236.863 623.587 236 626.3 236H640.36C642.827 236 644.8 236.863 646.28 238.59C648.007 240.07 648.87 242.043 648.87 244.51V270.41C665.397 272.383 679.21 276.947 690.31 284.1C701.41 291.253 709.797 299.517 715.47 308.89C721.143 318.263 724.103 327.39 724.35 336.27C724.35 337.997 723.733 339.723 722.5 341.45C721.267 342.93 719.293 343.67 716.58 343.67H696.97C695.243 343.67 693.393 343.177 691.42 342.19C689.693 341.203 688.337 339.353 687.35 336.64C685.87 326.527 680.197 318.017 670.33 311.11C660.463 304.203 647.637 300.75 631.85 300.75C615.817 300.75 602.743 303.833 592.63 310C582.763 316.167 577.83 325.787 577.83 338.86C577.83 347.247 580.173 354.277 584.86 359.95C589.547 365.377 596.947 370.187 607.06 374.38C617.173 378.573 630.37 383.013 646.65 387.7C666.383 393.127 682.54 398.923 695.12 405.09C707.7 411.01 716.95 418.533 722.87 427.66C729.037 436.54 732.12 448.01 732.12 462.07C732.12 476.13 728.667 488.34 721.76 498.7C715.1 509.06 705.48 517.323 692.9 523.49C680.567 529.657 665.89 533.48 648.87 534.96V560.49C648.87 562.957 648.007 564.93 646.28 566.41C644.8 568.137 642.827 569 640.36 569H626.3Z" fill="white"/>
</g>
<g id="Maverick">
<circle id="bcg_4" cx="418" cy="532" r="50" fill="#CC3C52"/>
<path id="$_4" d="M416.3 562C415.787 562 415.39 561.837 415.11 561.51C414.83 561.23 414.69 560.857 414.69 560.39V555.49C411.283 555.21 408.413 554.44 406.08 553.18C403.747 551.873 401.973 550.31 400.76 548.49C399.547 546.67 398.893 544.733 398.8 542.68C398.8 542.307 398.94 541.98 399.22 541.7C399.547 541.373 399.92 541.21 400.34 541.21H403.91C404.47 541.21 404.89 541.35 405.17 541.63C405.45 541.91 405.637 542.237 405.73 542.61C406.01 543.73 406.593 544.85 407.48 545.97C408.367 547.043 409.627 547.953 411.26 548.7C412.94 549.4 415.087 549.75 417.7 549.75C421.713 549.75 424.653 549.05 426.52 547.65C428.433 546.203 429.39 544.29 429.39 541.91C429.39 540.277 428.877 538.97 427.85 537.99C426.87 536.963 425.353 536.053 423.3 535.26C421.247 534.467 418.587 533.603 415.32 532.67C411.913 531.69 409.09 530.617 406.85 529.45C404.61 528.283 402.93 526.837 401.81 525.11C400.737 523.383 400.2 521.19 400.2 518.53C400.2 515.123 401.46 512.207 403.98 509.78C406.5 507.307 410.07 505.86 414.69 505.44V500.61C414.69 500.143 414.83 499.77 415.11 499.49C415.39 499.163 415.787 499 416.3 499H418.96C419.427 499 419.8 499.163 420.08 499.49C420.407 499.77 420.57 500.143 420.57 500.61V505.51C423.697 505.883 426.31 506.747 428.41 508.1C430.51 509.453 432.097 511.017 433.17 512.79C434.243 514.563 434.803 516.29 434.85 517.97C434.85 518.297 434.733 518.623 434.5 518.95C434.267 519.23 433.893 519.37 433.38 519.37H429.67C429.343 519.37 428.993 519.277 428.62 519.09C428.293 518.903 428.037 518.553 427.85 518.04C427.57 516.127 426.497 514.517 424.63 513.21C422.763 511.903 420.337 511.25 417.35 511.25C414.317 511.25 411.843 511.833 409.93 513C408.063 514.167 407.13 515.987 407.13 518.46C407.13 520.047 407.573 521.377 408.46 522.45C409.347 523.477 410.747 524.387 412.66 525.18C414.573 525.973 417.07 526.813 420.15 527.7C423.883 528.727 426.94 529.823 429.32 530.99C431.7 532.11 433.45 533.533 434.57 535.26C435.737 536.94 436.32 539.11 436.32 541.77C436.32 544.43 435.667 546.74 434.36 548.7C433.1 550.66 431.28 552.223 428.9 553.39C426.567 554.557 423.79 555.28 420.57 555.56V560.39C420.57 560.857 420.407 561.23 420.08 561.51C419.8 561.837 419.427 562 418.96 562H416.3Z" fill="white"/>
</g>
<g id="Avatar">
<circle id="bcg_5" cx="348" cy="384" r="70" fill="#94346E"/>
<path id="txt" d="M346 429C345.267 429 344.7 428.767 344.3 428.3C343.9 427.9 343.7 427.367 343.7 426.7V419.7C338.833 419.3 334.733 418.2 331.4 416.4C328.067 414.533 325.533 412.3 323.8 409.7C322.067 407.1 321.133 404.333 321 401.4C321 400.867 321.2 400.4 321.6 400C322.067 399.533 322.6 399.3 323.2 399.3H328.3C329.1 399.3 329.7 399.5 330.1 399.9C330.5 400.3 330.767 400.767 330.9 401.3C331.3 402.9 332.133 404.5 333.4 406.1C334.667 407.633 336.467 408.933 338.8 410C341.2 411 344.267 411.5 348 411.5C353.733 411.5 357.933 410.5 360.6 408.5C363.333 406.433 364.7 403.7 364.7 400.3C364.7 397.967 363.967 396.1 362.5 394.7C361.1 393.233 358.933 391.933 356 390.8C353.067 389.667 349.267 388.433 344.6 387.1C339.733 385.7 335.7 384.167 332.5 382.5C329.3 380.833 326.9 378.767 325.3 376.3C323.767 373.833 323 370.7 323 366.9C323 362.033 324.8 357.867 328.4 354.4C332 350.867 337.1 348.8 343.7 348.2V341.3C343.7 340.633 343.9 340.1 344.3 339.7C344.7 339.233 345.267 339 346 339H349.8C350.467 339 351 339.233 351.4 339.7C351.867 340.1 352.1 340.633 352.1 341.3V348.3C356.567 348.833 360.3 350.067 363.3 352C366.3 353.933 368.567 356.167 370.1 358.7C371.633 361.233 372.433 363.7 372.5 366.1C372.5 366.567 372.333 367.033 372 367.5C371.667 367.9 371.133 368.1 370.4 368.1H365.1C364.633 368.1 364.133 367.967 363.6 367.7C363.133 367.433 362.767 366.933 362.5 366.2C362.1 363.467 360.567 361.167 357.9 359.3C355.233 357.433 351.767 356.5 347.5 356.5C343.167 356.5 339.633 357.333 336.9 359C334.233 360.667 332.9 363.267 332.9 366.8C332.9 369.067 333.533 370.967 334.8 372.5C336.067 373.967 338.067 375.267 340.8 376.4C343.533 377.533 347.1 378.733 351.5 380C356.833 381.467 361.2 383.033 364.6 384.7C368 386.3 370.5 388.333 372.1 390.8C373.767 393.2 374.6 396.3 374.6 400.1C374.6 403.9 373.667 407.2 371.8 410C370 412.8 367.4 415.033 364 416.7C360.667 418.367 356.7 419.4 352.1 419.8V426.7C352.1 427.367 351.867 427.9 351.4 428.3C351 428.767 350.467 429 349.8 429H346Z" fill="white"/>
</g>
</g>
</svg>
