<svg width="4710" height="3403" viewBox="0 0 4710 3403" fill="none" xmlns="http://www.w3.org/2000/svg">
<style>
    #Top_flap{
        animation: flap 6s ease-in-out infinite;
        transform-origin: bottom left;
        transform-box: fill-box;
    }

    #Top_flap_3{
        animation: flap 6s ease-in-out infinite;
        animation-delay: 1.5s;
        transform-origin: bottom left;
        transform-box: fill-box;
    }

    #Top_flap_4{
        animation: flap 6s ease-in-out infinite;
        animation-delay: 5s;
        transform-origin: bottom left;
        transform-box: fill-box;
    }

    #Top_flap_2{
        animation: flap 6s ease-in-out infinite;
        animation-delay: 2.6s;
        transform-origin: bottom left;
        transform-box: fill-box;
    }


    @keyframes flap {
        0% {
            transform: rotateZ(0deg);
        } 
        66% {
            transform: rotateZ(0deg);
        }
        86% {
            transform: rotateZ(-19deg);
        }
        100% {
            transform: rotateZ(0deg);
        }
    }
</style>
<g id="Comparison_ds">
<g id="Flap">
<g id="Top_flap">
<path id="Vector" d="M4280.35 831.328C4116.94 831.885 3979.57 832.11 3975.05 833.057C3969.94 833.885 4074.37 942.092 4206.14 1074.35L4446.62 1315.06L4530.11 1315.14C4575.9 1315.06 4615.03 1314.27 4616.58 1312.72C4622.29 1308.92 4620.22 857.582 4614.41 846.515C4611.2 840.923 4601.93 834.729 4592.89 833.531C4584.45 832.453 4443.64 831.366 4280.35 831.328Z" fill="#ffc609"/>
<path id="Vector_2" d="M3432.85 831.704C3327.6 832.197 3239.71 832.47 3237.81 832.706C3236.02 832.347 3342.96 940.438 3475.2 1073.41L3716.27 1314.24L3909.18 1314.66C4015.5 1315 4106.48 1314.73 4111.6 1313.9C4120.52 1312.6 3644.07 833.334 3631.94 832.133C3627.78 831.296 3538.7 831.33 3432.85 831.704Z" fill="#ffc609"/>
<path id="Vector_3" d="M2703.1 831.003C2604.62 831.622 2519.71 832.492 2515.31 832.845C2510.79 833.792 2615.22 941.999 2746.99 1074.26L2986.88 1314.84L3176.69 1315.26C3281.11 1315.84 3371.62 1314.86 3377.44 1313.55C3392.91 1310.48 2925.96 842.397 2900.16 835.355C2890.89 832.254 2802.17 830.504 2703.1 831.003Z" fill="#ffc609"/>
<path id="Vector_4" d="M2114.04 831.983C2038.99 832.982 2017.34 842.238 2010.53 876.126C2005.75 899.907 2004.53 1302.96 2009.16 1310.69C2011.53 1314.26 2623.19 1317.83 2653.04 1313.93C2658.75 1313.22 2277.71 925.501 2187.65 841.212C2179.33 833.354 2165.54 831.2 2114.04 831.983Z" fill="#ffc609"/>
<ellipse id="Ellipse 1" cx="2183.39" cy="1093.19" rx="68.2229" ry="61.4006" transform="rotate(11.365 2183.39 1093.19)" fill="white"/>
</g>
<g id="Bottom_flap">
<path id="Vector_5" d="M2009.89 1599.45V1842.02H2096.61H2182.72L2425.29 1599.45L2667.86 1356.88H2338.57H2009.89V1599.45Z" fill="#ffc609"/>
<path id="Vector_6" d="M2752.76 1599.45L2510.19 1842.02H2713.34H2916.5L3154.82 1603.69C3285.2 1473.31 3392.54 1364.15 3392.54 1361.12C3392.54 1358.7 3303.4 1356.88 3193.63 1356.88H2995.33L2752.76 1599.45Z" fill="#ffc609"/>
<path id="Vector_7" d="M3480.47 1599.45L3237.9 1842.02H3441.05H3644.21L3882.53 1603.69C4012.91 1473.31 4120.25 1364.15 4120.25 1361.12C4120.25 1358.7 4031.11 1356.88 3921.34 1356.88H3723.04L3480.47 1599.45Z" fill="#ffc609"/>
<path id="Vector_8" d="M4208.18 1599.45L3965.61 1842.02H4294.9H4623.58V1599.45V1356.88H4536.87H4450.75L4208.18 1599.45Z" fill="#ffc609"/>
<ellipse id="Ellipse 1_2" cx="2131.17" cy="1603.24" rx="68.2229" ry="61.4006" fill="white"/>
</g>
<g id="Body">
<path id="Body_2" d="M2009.89 2577.01C2009.89 3228.31 2010.5 3265.3 2021.41 3288.34C2035.36 3319.27 2070.53 3350.2 2096 3355.05C2106.92 3356.87 2663.62 3357.48 3332.5 3356.87L4548.99 3355.05L4573.86 3337.46C4587.8 3327.76 4604.18 3309.57 4611.46 3295.01C4623.58 3269.54 4623.58 3261.05 4623.58 2580.04V1890.53H3316.74H2009.89V2577.01Z" fill="#ffc609"/>
<rect id="Rectangle 1" x="2199.4" y="2255.9" width="563.976" height="140.994" rx="3" fill="white"/>
<rect id="Rectangle 2" x="2199.4" y="2506.05" width="563.976" height="140.994" rx="3" fill="white"/>
<rect id="Rectangle 3" x="2199.4" y="2747.11" width="563.976" height="140.994" rx="3" fill="white"/>
<line id="Line 1" x1="2856.85" y1="2385.32" x2="4402.79" y2="2394.38" stroke="white" stroke-width="5" stroke-linecap="round"/>
<line id="Line 2" x1="2856.85" y1="2885.62" x2="4402.79" y2="2894.68" stroke="white" stroke-width="5" stroke-linecap="round"/>
<line id="Line 3" x1="2856.85" y1="2635.47" x2="4402.79" y2="2644.53" stroke="white" stroke-width="5" stroke-linecap="round"/>
</g>
</g>
<g id="Flap_2">
<g id="Top_flap_2">
<path id="Vector_9" d="M1825.58 1765.77C1772.55 1765.95 1727.97 1766.02 1726.51 1766.33C1724.85 1766.6 1758.74 1801.71 1801.5 1844.63L1879.53 1922.74L1906.63 1922.77C1921.48 1922.74 1934.18 1922.48 1934.68 1921.98C1936.54 1920.75 1935.87 1774.29 1933.98 1770.7C1932.94 1768.88 1929.93 1766.87 1927 1766.48C1924.26 1766.13 1878.56 1765.78 1825.58 1765.77Z" fill="#38A6A5"/>
<path id="Vector_10" d="M1550.56 1765.89C1516.41 1766.05 1487.89 1766.14 1487.27 1766.22C1486.69 1766.1 1521.39 1801.18 1564.3 1844.33L1642.53 1922.47L1705.13 1922.61C1739.63 1922.72 1769.16 1922.63 1770.82 1922.37C1773.71 1921.94 1619.1 1766.42 1615.17 1766.03C1613.82 1765.76 1584.91 1765.77 1550.56 1765.89Z" fill="#38A6A5"/>
<path id="Vector_11" d="M1313.75 1765.66C1281.8 1765.86 1254.24 1766.15 1252.81 1766.26C1251.35 1766.57 1285.24 1801.68 1328 1844.6L1405.84 1922.67L1467.44 1922.81C1501.32 1922.99 1530.69 1922.68 1532.58 1922.25C1537.6 1921.25 1386.07 1769.36 1377.7 1767.08C1374.69 1766.07 1345.9 1765.5 1313.75 1765.66Z" fill="#38A6A5"/>
<path id="Vector_12" d="M1122.6 1765.98C1098.25 1766.31 1091.22 1769.31 1089.01 1780.31C1087.46 1788.02 1087.07 1918.81 1088.57 1921.32C1089.34 1922.48 1287.82 1923.64 1297.51 1922.37C1299.36 1922.14 1175.72 1796.33 1146.49 1768.98C1143.79 1766.43 1139.31 1765.73 1122.6 1765.98Z" fill="#38A6A5"/>
<ellipse id="Ellipse 1_3" cx="1145.11" cy="1850.74" rx="22.1386" ry="19.9247" transform="rotate(11.365 1145.11 1850.74)" fill="white"/>
</g>
<g id="Bottom_flap_2">
<path id="Vector_13" d="M1088.81 2015.03V2093.74H1116.95H1144.89L1223.6 2015.03L1302.32 1936.31H1195.46H1088.81V2015.03Z" fill="#38A6A5"/>
<path id="Vector_14" d="M1329.87 2015.03L1251.15 2093.74H1317.08H1383L1460.34 2016.4C1502.65 1974.09 1537.48 1938.67 1537.48 1937.69C1537.48 1936.9 1508.55 1936.31 1472.93 1936.31H1408.58L1329.87 2015.03Z" fill="#38A6A5"/>
<path id="Vector_15" d="M1566.01 2015.03L1487.3 2093.74H1553.22H1619.15L1696.48 2016.4C1738.79 1974.09 1773.62 1938.67 1773.62 1937.69C1773.62 1936.9 1744.7 1936.31 1709.08 1936.31H1644.73L1566.01 2015.03Z" fill="#38A6A5"/>
<path id="Vector_16" d="M1802.16 2015.03L1723.44 2093.74H1830.3H1936.96V2015.03V1936.31H1908.82H1880.87L1802.16 2015.03Z" fill="#38A6A5"/>
<ellipse id="Ellipse 1_4" cx="1128.16" cy="2016.26" rx="22.1386" ry="19.9247" fill="white"/>
</g>
<g id="Body_3">
<path id="Body_4" d="M1088.81 2332.25C1088.81 2543.6 1089 2555.6 1092.54 2563.08C1097.07 2573.11 1108.48 2583.15 1116.75 2584.72C1120.29 2585.32 1300.94 2585.51 1518 2585.32L1912.75 2584.72L1920.82 2579.02C1925.35 2575.87 1930.66 2569.97 1933.02 2565.24C1936.96 2556.98 1936.96 2554.22 1936.96 2333.23V2109.48H1512.88H1088.81V2332.25Z" fill="#38A6A5"/>
<rect id="Rectangle 1_2" x="1150.3" y="2228.05" width="183.012" height="45.753" rx="3" fill="white"/>
<rect id="Rectangle 2_2" x="1150.3" y="2309.22" width="183.012" height="45.753" rx="3" fill="white"/>
<rect id="Rectangle 3_2" x="1150.3" y="2387.45" width="183.012" height="45.753" rx="3" fill="white"/>
<line id="Line 1_2" x1="1365.35" y1="2268.36" x2="1863.63" y2="2271.29" stroke="white" stroke-width="5" stroke-linecap="round"/>
<line id="Line 2_2" x1="1365.35" y1="2430.71" x2="1863.63" y2="2433.64" stroke="white" stroke-width="5" stroke-linecap="round"/>
<line id="Line 3_2" x1="1365.35" y1="2349.54" x2="1863.63" y2="2352.46" stroke="white" stroke-width="5" stroke-linecap="round"/>
</g>
</g>
<g id="Flap_3">
<g id="Top_flap_3">
<path id="Vector_17" d="M931.793 1907.67C898.245 1907.78 870.045 1907.83 869.117 1908.02C868.067 1908.19 889.507 1930.41 916.558 1957.56L965.929 2006.98L983.069 2006.99C992.469 2006.98 1000.5 2006.82 1000.82 2006.5C1001.99 2005.72 1001.57 1913.06 1000.37 1910.79C999.717 1909.64 997.814 1908.37 995.958 1908.12C994.225 1907.9 965.316 1907.68 931.793 1907.67Z" fill="#94346E"/>
<path id="Vector_18" d="M757.804 1907.75C736.196 1907.85 718.152 1907.9 717.762 1907.95C717.395 1907.88 739.348 1930.07 766.497 1957.37L815.99 2006.81L855.593 2006.9C877.421 2006.97 896.099 2006.91 897.149 2006.74C898.981 2006.47 801.167 1908.08 798.676 1907.84C797.822 1907.66 779.534 1907.67 757.804 1907.75Z" fill="#94346E"/>
<path id="Vector_19" d="M607.987 1907.6C587.771 1907.73 570.337 1907.91 569.434 1907.98C568.506 1908.18 589.946 1930.39 616.998 1957.54L666.246 2006.93L705.214 2007.02C726.651 2007.14 745.232 2006.94 746.429 2006.67C749.604 2006.04 653.741 1909.94 648.444 1908.5C646.54 1907.86 628.326 1907.5 607.987 1907.6Z" fill="#94346E"/>
<path id="Vector_20" d="M487.054 1907.8C471.647 1908.01 467.202 1909.91 465.803 1916.87C464.822 1921.75 464.572 2004.49 465.522 2006.08C466.01 2006.82 591.581 2007.55 597.71 2006.75C598.883 2006.6 520.657 1927 502.166 1909.7C500.458 1908.09 497.626 1907.64 487.054 1907.8Z" fill="#94346E"/>
<ellipse id="Ellipse 1_5" cx="501.292" cy="1961.43" rx="14.006" ry="12.6054" transform="rotate(11.365 501.292 1961.43)" fill="white"/>
</g>
<g id="Bottom_flap_3">
<path id="Vector_21" d="M465.673 2065.36V2115.16H483.476H501.155L550.954 2065.36L600.753 2015.56H533.151H465.673V2065.36Z" fill="#94346E"/>
<path id="Vector_22" d="M618.183 2065.36L568.384 2115.16H610.09H651.797L700.725 2066.23C727.492 2039.47 749.528 2017.06 749.528 2016.44C749.528 2015.94 731.227 2015.56 708.693 2015.56H667.982L618.183 2065.36Z" fill="#94346E"/>
<path id="Vector_23" d="M767.58 2065.36L717.781 2115.16H759.488H801.195L850.122 2066.23C876.89 2039.47 898.926 2017.06 898.926 2016.44C898.926 2015.94 880.624 2015.56 858.09 2015.56H817.38L767.58 2065.36Z" fill="#94346E"/>
<path id="Vector_24" d="M916.978 2065.36L867.179 2115.16H934.781H1002.26V2065.36V2015.56H984.456H966.777L916.978 2065.36Z" fill="#94346E"/>
<ellipse id="Ellipse 1_6" cx="490.572" cy="2066.14" rx="14.006" ry="12.6054" fill="white"/>
</g>
<g id="Body_5">
<path id="Body_6" d="M465.673 2266.05C465.673 2399.76 465.797 2407.36 468.038 2412.09C470.902 2418.44 478.122 2424.79 483.351 2425.79C485.592 2426.16 599.882 2426.28 737.203 2426.16L986.946 2425.79L992.05 2422.17C994.914 2420.18 998.275 2416.45 999.769 2413.46C1002.26 2408.23 1002.26 2406.49 1002.26 2266.68V2125.12H733.966H465.673V2266.05Z" fill="#94346E"/>
<rect id="Rectangle 1_3" x="504.578" y="2200.13" width="115.783" height="28.9458" rx="3" fill="white"/>
<rect id="Rectangle 2_3" x="504.578" y="2251.49" width="115.783" height="28.9458" rx="3" fill="white"/>
<rect id="Rectangle 3_3" x="504.578" y="2300.98" width="115.783" height="28.9458" rx="3" fill="white"/>
<line id="Line 1_3" x1="641.551" y1="2224.73" x2="954.954" y2="2226.56" stroke="white" stroke-width="5" stroke-linecap="round"/>
<line id="Line 2_3" x1="641.551" y1="2327.44" x2="954.954" y2="2329.27" stroke="white" stroke-width="5" stroke-linecap="round"/>
<line id="Line 3_3" x1="641.551" y1="2276.08" x2="954.954" y2="2277.92" stroke="white" stroke-width="5" stroke-linecap="round"/>
</g>
</g>
<g id="Flap_4">
<g id="Top_flap_4">
<path id="Vector_25" d="M343.092 1994.11C321.449 1994.18 303.255 1994.21 302.656 1994.34C301.978 1994.45 315.811 2008.78 333.263 2026.3L365.116 2058.18L376.174 2058.19C382.238 2058.18 387.421 2058.08 387.626 2057.87C388.382 2057.37 388.109 1997.59 387.339 1996.12C386.914 1995.38 385.686 1994.56 384.489 1994.4C383.371 1994.26 364.72 1994.11 343.092 1994.11Z" fill="#CC3C52"/>
<path id="Vector_26" d="M230.841 1994.16C216.9 1994.22 205.259 1994.26 205.007 1994.29C204.771 1994.24 218.934 2008.56 236.45 2026.17L268.381 2058.07L293.931 2058.13C308.013 2058.17 320.064 2058.14 320.741 2058.03C321.923 2057.85 258.817 1994.38 257.211 1994.22C256.659 1994.11 244.861 1994.11 230.841 1994.16Z" fill="#CC3C52"/>
<path id="Vector_27" d="M134.185 1994.07C121.142 1994.15 109.895 1994.26 109.312 1994.31C108.713 1994.44 122.546 2008.77 139.998 2026.29L171.772 2058.15L196.912 2058.21C210.743 2058.28 222.731 2058.15 223.503 2057.98C225.551 2057.57 163.704 1995.58 160.286 1994.64C159.058 1994.23 147.307 1994 134.185 1994.07Z" fill="#CC3C52"/>
<path id="Vector_28" d="M56.1639 1994.2C46.224 1994.33 43.3559 1995.55 42.4537 2000.04C41.8206 2003.19 41.6591 2056.58 42.2724 2057.6C42.587 2058.07 123.601 2058.55 127.555 2058.03C128.311 2057.94 77.8429 2006.58 65.9134 1995.42C64.8117 1994.38 62.9847 1994.09 56.1639 1994.2Z" fill="#CC3C52"/>
<ellipse id="Ellipse 1_7" cx="65.3499" cy="2028.79" rx="9.03614" ry="8.13253" transform="rotate(11.365 65.3499 2028.79)" fill="white"/>
</g>
<g id="Bottom_flap_4">
<path id="Vector_29" d="M42.3694 2095.85V2127.98H53.8553H65.261L97.3895 2095.85L129.518 2063.72H85.9035H42.3694V2095.85Z" fill="#CC3C52"/>
<path id="Vector_30" d="M140.763 2095.85L108.635 2127.98H135.542H162.45L194.016 2096.41C211.285 2079.14 225.502 2064.68 225.502 2064.28C225.502 2063.96 213.695 2063.72 199.157 2063.72H172.892L140.763 2095.85Z" fill="#CC3C52"/>
<path id="Vector_31" d="M237.149 2095.85L205.02 2127.98H231.928H258.835L290.402 2096.41C307.671 2079.14 321.887 2064.68 321.887 2064.28C321.887 2063.96 310.08 2063.72 295.542 2063.72H269.277L237.149 2095.85Z" fill="#CC3C52"/>
<path id="Vector_32" d="M333.534 2095.85L301.406 2127.98H345.02H388.554V2095.85V2063.72H377.068H365.663L333.534 2095.85Z" fill="#CC3C52"/>
<ellipse id="Ellipse 1_8" cx="58.4338" cy="2096.35" rx="9.03614" ry="8.13253" fill="white"/>
</g>
<g id="Body_7">
<path id="Body_8" d="M42.3694 2225.33C42.3694 2311.59 42.4497 2316.49 43.8955 2319.54C45.7429 2323.64 50.4015 2327.74 53.775 2328.38C55.2208 2328.62 128.956 2328.7 217.55 2328.62L378.675 2328.38L381.968 2326.05C383.815 2324.76 385.984 2322.35 386.948 2320.43C388.554 2317.05 388.554 2315.93 388.554 2225.73V2134.4H215.462H42.3694V2225.33Z" fill="#CC3C52"/>
<rect id="Rectangle 1_4" x="67.47" y="2182.8" width="74.6988" height="18.6747" rx="3" fill="white"/>
<rect id="Rectangle 2_4" x="67.47" y="2215.93" width="74.6988" height="18.6747" rx="3" fill="white"/>
<rect id="Rectangle 3_4" x="67.47" y="2247.86" width="74.6988" height="18.6747" rx="3" fill="white"/>
<line id="Line 1_4" x1="156.731" y1="2197.78" x2="357.153" y2="2198.96" stroke="white" stroke-width="5" stroke-linecap="round"/>
<line id="Line 2_4" x1="156.731" y1="2264.04" x2="357.153" y2="2265.22" stroke="white" stroke-width="5" stroke-linecap="round"/>
<line id="Line 3_4" x1="156.731" y1="2230.91" x2="357.153" y2="2232.09" stroke="white" stroke-width="5" stroke-linecap="round"/>
</g>
</g>
</g>
</svg>
