<svg width="379" height="379" viewBox="0 0 379 379" fill="none" xmlns="http://www.w3.org/2000/svg">
<g id="Dollar">
<circle id="bcg" cx="189.5" cy="189.5" r="189.5" fill="#2E383D"/>
<path id="txt" d="M180.12 258.3C193.467 258.3 202.827 256.22 208.2 252.06C213.573 247.727 216.26 242.267 216.26 235.68C216.26 230.827 215.047 226.667 212.62 223.2C210.367 219.733 207.247 216.7 203.26 214.1C199.447 211.5 194.94 209.16 189.74 207.08C184.713 205 179.513 203.007 174.14 201.1C168.94 199.193 163.74 197.113 158.54 194.86C153.513 192.433 149.007 189.573 145.02 186.28C141.033 182.813 137.74 178.74 135.14 174.06C132.713 169.207 131.5 163.313 131.5 156.38C131.5 144.073 135.14 134.02 142.42 126.22C149.873 118.247 160.62 113.22 174.66 111.14V81.24H196.24V110.36C203.867 110.707 210.973 111.66 217.56 113.22C224.147 114.78 229.347 116.253 233.16 117.64L228.22 137.92C224.06 136.36 218.86 134.8 212.62 133.24C206.38 131.507 198.58 130.64 189.22 130.64C178.82 130.64 170.76 132.633 165.04 136.62C159.493 140.607 156.72 146.24 156.72 153.52C156.72 157.507 157.5 160.887 159.06 163.66C160.793 166.433 163.22 168.947 166.34 171.2C169.46 173.28 173.1 175.187 177.26 176.92C181.593 178.653 186.36 180.473 191.56 182.38C198.32 184.98 204.733 187.667 210.8 190.44C216.867 193.213 222.153 196.593 226.66 200.58C231.34 204.393 235.067 208.987 237.84 214.36C240.613 219.733 242 226.233 242 233.86C242 246.167 238.273 256.133 230.82 263.76C223.367 271.213 211.84 275.893 196.24 277.8V311.34H174.66V278.58C162.527 278.233 152.647 276.933 145.02 274.68C137.393 272.253 131.673 270 127.86 267.92L134.36 248.42C139.56 250.847 145.8 253.1 153.08 255.18C160.36 257.26 169.373 258.3 180.12 258.3Z" fill="white"/>
</g>
</svg>
