<svg width="664" height="748" viewBox="0 0 664 748" fill="none" xmlns="http://www.w3.org/2000/svg">
<style>
    #Top_flap {
        animation: flap 6s ease-in-out infinite;
        transform-origin: bottom left;
        transform-box: fill-box;
    }

    @keyframes flap {
        0% {
            transform: rotateZ(0deg);
        } 
        66% {
            transform: rotateZ(0deg);
        }
        86% {
            transform: rotateZ(-20deg);
        }
        100% {
            transform: rotateZ(0deg);
        }
    }
</style>
<g id="Flap">
<g id="Top_flap">
<path id="Vector" d="M569.533 182.782C533.605 182.905 503.403 182.954 502.409 183.162C501.284 183.344 524.246 207.136 553.217 236.215L606.092 289.138L624.448 289.156C634.516 289.14 643.119 288.965 643.459 288.625C644.715 287.79 644.261 188.554 642.982 186.121C642.277 184.892 640.239 183.53 638.252 183.267C636.396 183.029 605.436 182.79 569.533 182.782Z" fill="#2E383D"/>
<path id="Vector_2" d="M383.197 182.865C360.055 182.973 340.731 183.033 340.312 183.085C339.92 183.006 363.431 206.772 392.507 236.008L445.512 288.958L487.925 289.051C511.302 289.126 531.306 289.067 532.431 288.885C534.392 288.599 429.637 183.223 426.97 182.959C426.055 182.775 406.469 182.782 383.197 182.865Z" fill="#2E383D"/>
<path id="Vector_3" d="M222.748 182.711C201.096 182.847 182.426 183.038 181.458 183.116C180.464 183.324 203.426 207.115 232.397 236.194L285.141 289.092L326.875 289.184C349.833 289.311 369.733 289.094 371.014 288.808C374.414 288.131 271.748 185.216 266.075 183.667C264.036 182.986 244.53 182.601 222.748 182.711Z" fill="#2E383D"/>
<path id="Vector_4" d="M93.2322 182.926C76.7321 183.146 71.971 185.181 70.4734 192.632C69.4224 197.86 69.1543 286.479 70.1724 288.179C70.6947 288.964 205.177 289.747 211.742 288.89C212.997 288.735 129.219 203.488 109.416 184.955C107.588 183.228 104.555 182.754 93.2322 182.926Z" fill="#2E383D"/>
<ellipse id="Ellipse 1" cx="108.481" cy="240.357" rx="15" ry="13.5" transform="rotate(11.365 108.481 240.357)" fill="white"/>
</g>
<g id="Bottom_flap">
<path id="Vector_5" d="M70.3333 351.667V405H89.4H108.333L161.667 351.667L215 298.333H142.6H70.3333V351.667Z" fill="#2E383D"/>
<path id="Vector_6" d="M233.667 351.667L180.333 405H225H269.667L322.067 352.6C350.733 323.933 374.333 299.933 374.333 299.267C374.333 298.733 354.733 298.333 330.6 298.333H287L233.667 351.667Z" fill="#2E383D"/>
<path id="Vector_7" d="M393.667 351.667L340.333 405H385H429.667L482.067 352.6C510.733 323.933 534.333 299.933 534.333 299.267C534.333 298.733 514.733 298.333 490.6 298.333H447L393.667 351.667Z" fill="#2E383D"/>
<path id="Vector_8" d="M553.667 351.667L500.333 405H572.733H645V351.667V298.333H625.933H607L553.667 351.667Z" fill="#2E383D"/>
<ellipse id="Ellipse 1_2" cx="97" cy="352.5" rx="15" ry="13.5" fill="white"/>
</g>
<g id="Body">
<path id="Body_2" d="M70.3333 566.6C70.3333 709.8 70.4666 717.933 72.8666 723C75.9333 729.8 83.6666 736.6 89.2666 737.667C91.6666 738.067 214.067 738.2 361.133 738.067L628.6 737.667L634.067 733.8C637.133 731.667 640.733 727.667 642.333 724.467C645 718.867 645 717 645 567.267V415.667H357.667H70.3333V566.6Z" fill="#2E383D"/>
<rect id="Rectangle 1" x="112" y="496" width="124" height="31" rx="3" fill="white"/>
<rect id="Rectangle 2" x="112" y="551" width="124" height="31" rx="3" fill="white"/>
<rect id="Rectangle 3" x="112" y="604" width="124" height="31" rx="3" fill="white"/>
<line id="Line 1" x1="258.515" y1="522.515" x2="594.515" y2="524.485" stroke="white" stroke-width="5" stroke-linecap="round"/>
<line id="Line 2" x1="258.515" y1="632.515" x2="594.515" y2="634.485" stroke="white" stroke-width="5" stroke-linecap="round"/>
<line id="Line 3" x1="258.515" y1="577.515" x2="594.515" y2="579.485" stroke="white" stroke-width="5" stroke-linecap="round"/>
</g>
</g>
</svg>
